# Blender v2.80 (sub 75) OBJ File: 'TestPoly.blend'
# www.blender.org
mtllib Mesh_TV.mtl
o TV_Cube.002
v -1.627559 -1.328944 -0.459786
v -1.905271 -1.094499 -0.459786
v -1.905271 1.168467 -0.459786
v -1.627559 1.402911 -0.459786
v 1.181644 -1.328944 -0.459786
v 1.459356 -1.094499 -0.459786
v 1.480180 0.660637 0.008116
v -1.627559 -1.328944 0.801955
v -1.627559 -1.094499 1.231889
v -1.905271 -1.094499 0.801955
v -1.627559 1.402911 0.801955
v -1.905271 1.168466 0.801955
v -1.627559 1.168467 1.231889
v 1.181644 -1.328944 0.801955
v 1.459356 -1.094499 0.801955
v 1.181644 -1.094499 1.231889
v 0.661879 1.575849 0.329110
v 1.181644 1.168466 1.231889
v 1.480180 0.660637 0.334053
v -1.950568 -0.381125 -0.462644
v -1.950568 0.455092 -0.462644
v 1.504140 0.439456 -0.133470
v 1.501354 0.160333 0.020224
v 1.184503 0.455092 1.292023
v 1.184503 -0.381125 1.292023
v 1.501354 0.160333 0.321945
v 1.504140 0.439456 0.475639
v -1.950568 0.455092 0.804813
v -1.950568 -0.381125 0.804813
v -1.630418 -0.381125 1.292023
v -1.630418 0.455092 1.292023
v 0.297941 -1.369622 -0.462644
v -0.743855 -1.369622 -0.462644
v 0.278597 1.443606 -0.237560
v -0.743855 -1.369622 0.804813
v 0.297941 -1.369622 0.804813
v 0.297941 -1.097227 1.292023
v -0.743855 -1.097227 1.292023
v 0.278597 1.443606 0.579729
v -0.743855 1.171194 1.292023
v 0.297941 1.171194 1.292023
v 0.297941 -0.381125 1.357875
v -0.743855 -0.381125 1.357875
v 0.297941 0.455092 1.357875
v -0.743855 0.455092 1.357875
v 0.297941 1.443589 -0.462644
v 1.181644 1.402911 -0.459786
v 1.181644 1.402911 0.801955
v -0.743855 1.443589 -0.462644
v 0.297941 1.443589 0.804813
v -0.743855 1.443589 0.804813
v 0.460528 1.778191 0.012334
v 0.460528 1.778191 0.329835
v 0.627254 1.727951 0.577597
v -0.118071 1.758280 0.014797
v -0.118071 1.758280 0.327372
v -0.853294 -1.532353 -0.047793
v -1.219716 -1.532353 -0.040370
v 0.825123 -1.532353 0.336798
v 0.825123 -1.532353 -0.040434
v 0.458703 -1.532353 0.331344
v -1.219716 -1.532353 0.336862
v 0.458703 -1.532353 -0.047171
v -0.853294 -1.532353 0.330722
v -0.384246 -1.532353 -0.044414
v -1.421659 -1.532353 -0.387656
v 1.027065 -1.532353 0.711291
v 1.027065 -1.532353 -0.387522
v -0.010346 -1.532353 0.363563
v -1.421659 -1.532353 0.711185
v -0.010346 -1.532353 -0.044414
v -0.384246 -1.532353 0.363563
v -1.212787 -2.564228 0.246518
v -1.482989 -2.564228 0.247159
v 1.042645 -2.564228 0.624392
v 1.042645 -2.564228 0.247160
v 0.794142 -2.564228 0.625033
v -1.482989 -2.564228 0.624391
v 0.794142 -2.564228 0.246518
v -1.212787 -2.564228 0.625033
v 0.914721 -1.942229 0.454105
v 0.914721 -1.942229 0.076873
v 0.567041 -1.942229 0.065372
v 0.567041 -1.942229 0.443887
v -0.979763 -1.942229 0.064597
v -1.327443 -1.942229 0.077293
v -0.979763 -1.942229 0.443111
v -1.327443 -1.942229 0.454525
v 0.256761 -1.532353 -0.392834
v -0.651352 -1.532353 -0.392834
v -0.651352 -1.532353 0.711983
v 0.256761 -1.532353 0.711983
v -0.010346 -2.555320 -0.443371
v -0.384246 -2.555320 -0.443371
v -0.384246 -2.555320 -0.035394
v -0.010346 -2.555320 -0.035394
v 0.698890 1.413260 -0.235428
v 0.698890 1.413260 0.577597
v 0.045814 1.786106 0.014797
v 0.045814 1.786106 0.327372
v 0.627254 1.727951 -0.235428
v -0.241858 1.443589 -0.237560
v -0.241858 1.443589 0.579729
v 0.294269 1.828291 -0.237560
v 0.294269 1.828291 0.579729
v -0.118071 1.758280 -0.237560
v -0.118071 1.758280 0.579729
v 0.626745 1.728104 0.013059
v 0.626745 1.728104 0.329110
v 0.661879 1.575849 0.013059
v -0.153172 1.669047 0.014797
v -0.153172 1.669047 0.327372
v -0.510967 2.317290 0.125607
v -0.510967 2.317290 0.216562
v -0.529463 2.270270 0.125607
v -0.529463 2.270270 0.216562
v -0.424612 2.331951 0.125607
v -0.424612 2.331951 0.216562
v 1.190257 2.458954 0.056041
v 1.190257 2.458954 0.286128
v 1.215834 2.348112 0.056041
v 1.215834 2.348112 0.286128
v 1.069251 2.495418 0.055514
v 1.069251 2.495418 0.286655
v 1.459356 1.168466 0.801955
v 1.459356 1.168466 -0.459786
v 1.504653 0.455092 0.804813
v 1.504653 0.455092 -0.462644
v 1.504653 -0.381125 -0.462644
v 1.504653 -0.381125 0.804813
v 1.740457 0.450005 -0.133470
v 1.740457 0.450005 0.475639
v 1.716496 0.671186 0.334053
v 1.716496 0.671186 0.008116
v 1.737671 0.170882 0.020224
v 1.737671 0.170882 0.321945
v -1.561238 -1.041046 -0.881476
v -1.649451 -1.110449 -0.826580
v -1.561238 1.115013 -0.881476
v -1.649451 1.184417 -0.826576
v 1.115324 -1.041046 -0.881475
v 1.203533 -1.110448 -0.826586
v 1.115324 1.115013 -0.881475
v 1.203537 1.184418 -0.826574
v -1.569207 0.442898 -0.922845
v -1.664485 0.455092 -0.898008
v -1.664485 -0.381125 -0.898009
v -1.569207 -0.368931 -0.922845
v 1.123293 -0.368931 -0.922845
v 1.218564 -0.381125 -0.898018
v 1.218567 0.455092 -0.898014
v 1.123293 0.442898 -0.922845
v -0.728706 -1.048827 -0.923399
v -0.743855 -1.127480 -0.895743
v 0.297941 -1.127479 -0.895745
v 0.282793 -1.048827 -0.923399
v 0.282793 1.122795 -0.923399
v 0.297941 1.201451 -0.895737
v -0.743855 1.201450 -0.895738
v -0.728707 1.122795 -0.923399
v 0.254950 -0.959862 -0.874771
v 0.233344 -0.827376 -0.865105
v 0.743211 -0.723375 -0.842521
v 0.872286 -0.845162 -0.851262
v -1.461783 -0.347531 -0.875444
v -1.310708 -0.330570 -0.861416
v -1.189113 -0.723360 -0.842521
v -1.318200 -0.845162 -0.851262
v -0.700863 1.033829 -0.874771
v -0.679257 0.901358 -0.865101
v -1.189120 0.797338 -0.842521
v -1.318200 0.919129 -0.851262
v 1.015869 0.421498 -0.875444
v 0.864878 0.404539 -0.861395
v 0.743406 0.796919 -0.842521
v 0.872286 0.919129 -0.851262
v -1.310712 0.404536 -0.861415
v -1.461783 0.421498 -0.875444
v 0.864857 -0.330571 -0.861400
v 1.015869 -0.347531 -0.875444
v -0.679256 -0.827370 -0.865107
v -0.700863 -0.959862 -0.874771
v 0.233338 0.901196 -0.865151
v 0.254950 1.033829 -0.874771
vt 0.233214 0.468192
vt 0.233442 0.623977
vt 0.334457 0.623977
vt 0.334686 0.468192
vt 0.188936 0.468192
vt 0.194208 0.624572
vt 0.199022 0.623977
vt 0.194208 0.468192
vt 0.233214 0.684057
vt 0.334686 0.684057
vt 0.334457 0.675174
vt 0.233442 0.675174
vt 0.308332 0.464777
vt 0.296997 0.513078
vt 0.296997 0.515382
vt 0.308332 0.467081
vt 0.334457 0.129797
vt 0.334686 0.285581
vt 0.369541 0.285581
vt 0.363823 0.126314
vt 0.369359 0.631179
vt 0.363822 0.627460
vt 0.334457 0.623977
vt 0.334686 0.468192
vt 0.369542 0.468192
vt 0.363822 0.627460
vt 0.233442 0.078599
vt 0.199022 0.129797
vt 0.233442 0.129797
vt 0.233442 0.078599
vt 0.233442 0.129797
vt 0.199022 0.129797
vt 0.233442 0.675174
vt 0.199022 0.623977
vt 0.233442 0.623977
vt 0.334457 0.078599
vt 0.334457 0.129797
vt 0.334457 0.675174
vt 0.194208 0.285581
vt 0.233214 0.285581
vt 0.233214 0.069716
vt 0.194208 0.129201
vt 0.233214 0.285581
vt 0.194208 0.285581
vt 0.334457 0.078599
vt 0.233214 0.069716
vt 0.240709 0.034180
vt 0.240646 0.034180
vt 0.194208 0.468192
vt 0.233214 0.468192
vt 0.334686 0.069716
vt 0.334686 0.069716
vt 0.369360 0.122595
vt 0.369360 0.122595
vt 0.368217 0.612303
vt 0.371529 0.465529
vt 0.367735 0.460856
vt 0.365799 0.569527
vt 0.334686 0.285581
vt 0.259567 0.464777
vt 0.271872 0.403823
vt 0.271872 0.406127
vt 0.259567 0.467081
vt 0.363823 0.126314
vt 0.334686 0.684057
vt 0.369359 0.631179
vt 0.194208 0.129201
vt 0.188936 0.285581
vt 0.188936 0.468192
vt 0.188936 0.285581
vt 0.369542 0.285581
vt 0.368217 0.141470
vt 0.371529 0.288244
vt 0.367735 0.292917
vt 0.365799 0.184246
vt 0.329097 0.034180
vt 0.328682 0.034180
vt 0.329097 0.034180
vt 0.233214 0.684057
vt 0.194208 0.624572
vt 0.368217 0.612303
vt 0.371574 0.614003
vt 0.367681 0.594575
vt 0.365799 0.569527
vt 0.368217 0.141470
vt 0.371574 0.139771
vt 0.367681 0.159198
vt 0.365799 0.184246
vt 0.369541 0.468192
vt 0.321846 0.712733
vt 0.321846 0.712729
vt 0.321846 0.781451
vt 0.321846 0.796740
vt 0.256414 0.712729
vt 0.256414 0.712733
vt 0.256414 0.796740
vt 0.256414 0.781451
vt 0.321676 0.706106
vt 0.339638 0.703846
vt 0.339866 0.712729
vt 0.316495 0.677434
vt 0.251404 0.677434
vt 0.339866 0.712729
vt 0.256585 0.706106
vt 0.238394 0.712729
vt 0.238623 0.703846
vt 0.238394 0.712729
vt 0.321676 0.774827
vt 0.256585 0.774827
vt 0.698501 0.583173
vt 0.731032 0.583173
vt 0.715464 0.013079
vt 0.682933 0.013079
vt 0.730043 0.583173
vt 0.697623 0.583173
vt 0.682988 0.013079
vt 0.715409 0.013079
vt 0.740467 0.958846
vt 0.705405 0.958846
vt 0.739692 0.021244
vt 0.774754 0.021244
vt 0.240646 0.034180
vt 0.240701 0.034180
vt 0.328672 0.034180
vt 0.301473 0.034180
vt 0.300879 0.034180
vt 0.270683 0.034180
vt 0.300884 0.034180
vt 0.271119 0.034180
vt 0.270678 0.034180
vt 0.301423 0.034180
vt 0.271169 0.034180
vt 0.715464 0.013079
vt 0.682933 0.013079
vt 0.682988 0.013079
vt 0.715409 0.013079
vt 0.730007 0.583173
vt 0.731098 0.583173
vt 0.698568 0.583173
vt 0.697587 0.583173
vt 0.707705 0.958846
vt 0.708174 0.958846
vt 0.740704 0.958846
vt 0.740125 0.958846
vt 0.707699 0.958846
vt 0.740119 0.958846
vt 0.708227 0.958846
vt 0.740757 0.958846
vt 0.301203 0.034180
vt 0.301203 0.034180
vt 0.268540 0.034180
vt 0.268540 0.034180
vt 0.739692 0.021244
vt 0.774754 0.021244
vt 0.740467 0.958846
vt 0.705405 0.958846
vt 0.301782 0.741612
vt 0.276479 0.741612
vt 0.276421 0.785799
vt 0.301840 0.785799
vt 0.301782 0.774861
vt 0.276479 0.774861
vt 0.276618 0.761964
vt 0.301643 0.761964
vt 0.301643 0.787527
vt 0.276618 0.787527
vt 0.301643 0.781451
vt 0.276618 0.781451
vt 0.298383 0.942425
vt 0.298341 0.934462
vt 0.292771 0.903525
vt 0.292771 0.906727
vt 0.285489 0.903525
vt 0.285489 0.893257
vt 0.298341 0.910256
vt 0.285489 0.906727
vt 0.292771 0.893257
vt 0.279920 0.934462
vt 0.279878 0.942425
vt 0.279920 0.910256
vt 0.371529 0.288244
vt 0.367735 0.292918
vt 0.371574 0.139771
vt 0.367681 0.159198
vt 0.371574 0.614003
vt 0.367681 0.594575
vt 0.371529 0.465529
vt 0.367735 0.460856
vt 0.270903 0.513078
vt 0.296028 0.403823
vt 0.270903 0.515382
vt 0.296028 0.406127
vt 0.366907 0.188130
vt 0.365099 0.210842
vt 0.366612 0.296622
vt 0.365099 0.210845
vt 0.366906 0.565646
vt 0.365099 0.542930
vt 0.366610 0.457152
vt 0.365099 0.542839
vt 0.366611 0.457152
vt 0.366610 0.296621
vt 0.366907 0.188132
vt 0.366911 0.565611
vn -0.9980 0.0634 0.0000
vn -0.0708 0.0877 0.9936
vn -0.0460 0.9989 -0.0000
vn -0.0240 0.5371 -0.8432
vn -0.8276 -0.0633 -0.5578
vn -0.0480 0.8661 -0.4975
vn 0.8276 0.0633 -0.5578
vn -0.5954 -0.7053 0.3846
vn -0.5954 0.7053 0.3846
vn 0.5954 -0.7053 0.3846
vn 0.5954 0.7053 0.3846
vn 0.6451 -0.7641 0.0000
vn 0.6451 0.7641 0.0000
vn 0.8366 -0.0523 0.5453
vn 0.0387 -0.8746 0.4833
vn -0.0387 0.8746 0.4833
vn -0.8366 -0.0523 0.5453
vn -0.6451 -0.7641 0.0000
vn -0.6451 0.7641 0.0000
vn -0.0132 -0.4568 0.8895
vn -0.8366 0.0523 0.5453
vn -0.8357 0.0000 0.5492
vn 0.8366 0.0523 0.5453
vn 0.8357 0.0000 0.5492
vn -0.0000 -0.8728 -0.4880
vn -0.2307 0.0246 -0.9727
vn 0.9980 -0.0634 0.0000
vn 0.0215 -0.4824 0.8757
vn 0.0480 -0.8661 -0.4975
vn 0.0000 0.8728 -0.4880
vn -0.0708 -0.0877 0.9936
vn -0.0741 0.0000 0.9973
vn -0.9980 -0.0634 -0.0000
vn -1.0000 0.0000 0.0000
vn 0.0741 0.0000 0.9973
vn 0.0000 0.0000 1.0000
vn 0.0708 -0.0877 0.9936
vn 0.0000 -0.0916 0.9958
vn 0.8276 -0.0633 -0.5578
vn 0.5954 0.7053 -0.3846
vn 0.8357 -0.0000 -0.5492
vn 0.2307 -0.0246 -0.9727
vn -0.0136 -0.3711 -0.9285
vn 0.0000 -0.3942 -0.9190
vn 0.0387 0.8746 0.4833
vn 0.0000 0.8728 0.4880
vn -0.0387 -0.8746 0.4833
vn 0.0000 -0.8728 0.4880
vn -0.0193 -0.2837 -0.9587
vn 0.5954 -0.7053 -0.3846
vn 0.0193 0.2837 -0.9587
vn -0.5954 -0.7053 -0.3846
vn -0.8357 0.0000 -0.5492
vn 0.0000 0.0000 -1.0000
vn 0.0708 0.0877 0.9936
vn 0.0000 0.0916 0.9958
vn 0.0542 0.9978 0.0375
vn 0.0214 0.9998 0.0000
vn -0.0000 1.0000 -0.0000
vn 0.0542 0.9978 -0.0375
vn 0.0057 0.0005 -1.0000
vn 0.0057 0.0005 1.0000
vn -0.9393 -0.3430 0.0000
vn 0.9795 0.2015 0.0000
vn 1.0000 0.0000 0.0000
vn -0.7028 -0.7114 0.0000
vn 0.0131 -0.4536 0.8911
vn 0.0136 -0.3681 -0.9297
vn 0.0000 -0.4955 0.8686
vn 0.7962 -0.6051 0.0000
vn 0.0000 -1.0000 0.0000
vn 0.0196 -0.2666 -0.9636
vn -0.0155 0.2677 0.9634
vn -0.0208 -0.2660 -0.9637
vn 0.9364 -0.3508 0.0000
vn 0.0168 0.2672 0.9635
vn -0.9701 0.2426 0.0000
vn -0.0212 0.2652 0.9640
vn 0.0246 -0.2644 -0.9641
vn 0.9769 0.2136 0.0000
vn -0.9668 -0.2555 0.0000
vn -0.9672 0.2542 0.0000
vn 0.0237 0.2638 0.9643
vn 0.9555 -0.2948 0.0000
vn -0.0272 -0.2629 -0.9644
vn 0.0000 0.3633 -0.9317
vn -0.0000 -0.3633 0.9317
vn 0.9751 0.2220 0.0000
vn 0.2885 0.9575 0.0000
vn 0.9748 0.2229 0.0006
vn 0.9748 0.2229 -0.0006
vn -0.9306 0.3661 0.0000
vn -0.1674 0.9859 0.0000
vn 0.0179 0.0449 -0.9988
vn -0.0296 0.1743 -0.9842
vn -0.1775 0.0698 0.9816
vn 0.0586 0.0135 -0.9982
vn -0.8477 -0.5305 0.0000
vn -0.1775 0.0698 -0.9816
vn -0.0296 0.1743 0.9842
vn 0.7575 0.6528 0.0000
vn 0.9744 0.2248 0.0000
vn 0.8126 -0.5829 0.0000
vn 0.0586 0.0135 0.9982
vn 0.0179 0.0449 0.9988
vn -0.7624 0.6471 0.0000
vn -0.4037 0.0000 -0.9149
vn 0.0000 0.4796 -0.8775
vn 0.0193 -0.2837 -0.9587
vn -0.0193 0.2837 -0.9587
vn 0.4037 0.0000 -0.9149
vn -0.2307 -0.0246 -0.9727
vn 0.0000 -0.4796 -0.8775
vn 0.2307 0.0246 -0.9727
vn -0.5954 0.7053 -0.3846
vn 0.0480 0.8661 -0.4975
vn -0.8276 0.0633 -0.5578
vn 0.9992 0.0410 0.0000
vn 0.9973 0.0707 -0.0210
vn 0.9973 0.0707 0.0210
vn 1.0000 -0.0017 0.0058
vn 1.0000 -0.0017 -0.0058
vn 1.0000 0.0061 0.0000
vn 0.9942 0.1077 0.0000
vn 1.0000 -0.0100 0.0000
vn -0.0446 0.9990 0.0000
vn 0.0446 -0.9990 0.0000
vn 0.0215 -0.4824 -0.8757
vn -0.0240 0.5371 0.8432
vn 0.0633 -0.4519 -0.8898
vn -0.3669 -0.0806 -0.9268
vn -0.0633 0.4520 -0.8898
vn 0.3669 0.0806 -0.9268
vn -0.3669 0.0806 -0.9268
vn -0.2522 0.0000 -0.9677
vn 0.3668 -0.0806 -0.9268
vn 0.2522 0.0000 -0.9677
vn -0.0633 -0.4519 -0.8898
vn -0.0000 -0.3317 -0.9434
vn 0.0633 0.4520 -0.8898
vn 0.0000 0.3318 -0.9434
vn -0.0480 -0.8661 -0.4975
vn 0.0240 0.0863 -0.9960
vn 0.0913 -0.0210 -0.9956
vn -0.0240 -0.0863 -0.9960
vn -0.0915 0.0209 -0.9956
vn 0.0913 0.0210 -0.9956
vn 0.0925 0.0000 -0.9957
vn -0.0914 -0.0209 -0.9956
vn -0.0926 0.0000 -0.9957
vn -0.0240 0.0863 -0.9960
vn 0.0000 0.0728 -0.9974
vn 0.0241 -0.0860 -0.9960
vn -0.0000 -0.0726 -0.9974
usemtl Palette
s off
f 28/1/1 12/2/1 3/3/1 21/4/1
f 45/5/2 40/6/2 13/7/2 31/8/2
f 51/9/3 49/10/3 4/11/3 11/12/3
f 22/13/4 7/14/4 134/15/4 131/16/4
f 2/17/5 20/18/5 147/19/5 138/20/5
f 4/11/6 49/10/6 159/21/6 140/22/6
f 126/23/7 128/24/7 151/25/7 144/26/7
f 8/27/8 9/28/8 10/29/8
f 11/12/9 12/2/9 13/7/9
f 14/30/10 15/31/10 16/32/10
f 48/33/11 18/34/11 125/35/11
f 14/30/12 5/36/12 6/37/12 15/31/12
f 47/38/13 48/33/13 125/35/13 126/23/13
f 25/39/14 16/32/14 15/31/14 130/40/14
f 36/41/15 14/30/15 16/32/15 37/42/15
f 51/9/16 11/12/16 13/7/16 40/6/16
f 29/43/17 10/29/17 9/28/17 30/44/17
f 1/45/18 8/27/18 10/29/18 2/17/18
f 11/12/19 4/11/19 3/3/19 12/2/19
f 35/46/20 8/27/20 70/47/20 91/48/20
f 12/2/21 28/1/21 31/8/21 13/7/21
f 28/1/22 29/43/22 30/44/22 31/8/22
f 18/34/23 24/49/23 127/50/23 125/35/23
f 24/49/24 25/39/24 130/40/24 127/50/24
f 32/51/25 33/52/25 154/53/25 155/54/25
f 143/55/26 152/56/26 173/57/26 176/58/26
f 6/37/27 129/59/27 130/40/27 15/31/27
f 27/60/28 26/61/28 136/62/28 132/63/28
f 5/36/29 32/51/29 155/54/29 142/64/29
f 49/10/30 46/65/30 158/66/30 159/21/30
f 38/67/31 43/68/31 30/44/31 9/28/31
f 43/68/32 45/5/32 31/8/32 30/44/32
f 10/29/33 29/43/33 20/18/33 2/17/33
f 29/43/34 28/1/34 21/4/34 20/18/34
f 25/39/35 24/49/35 44/69/35 42/70/35
f 42/70/36 44/69/36 45/5/36 43/68/36
f 16/32/37 25/39/37 42/70/37 37/42/37
f 37/42/38 42/70/38 43/68/38 38/67/38
f 129/59/39 6/37/39 142/64/39 150/71/39
f 47/38/40 126/23/40 144/26/40
f 128/24/41 129/59/41 150/71/41 151/25/41
f 137/72/42 148/73/42 165/74/42 168/75/42
f 1/45/43 33/52/43 90/76/43 66/77/43
f 33/52/44 32/51/44 89/78/44 90/76/44
f 48/33/45 50/79/45 41/80/45 18/34/45
f 50/79/46 51/9/46 40/6/46 41/80/46
f 8/27/47 35/46/47 38/67/47 9/28/47
f 35/46/48 36/41/48 37/42/48 38/67/48
f 139/81/49 160/82/49 169/83/49 172/84/49
f 5/36/50 142/64/50 6/37/50
f 141/85/51 156/86/51 161/87/51 164/88/51
f 1/45/52 2/17/52 138/20/52
f 20/18/53 21/4/53 146/89/53 147/19/53
f 34/90/54 102/91/54 106/92/54 104/93/54
f 103/94/36 39/95/36 105/96/36 107/97/36
f 24/49/55 18/34/55 41/80/55 44/69/55
f 44/69/56 41/80/56 40/6/56 45/5/56
f 34/90/57 97/98/57 47/99/57 46/100/57
f 97/101/58 98/102/58 48/33/58 47/38/58
f 102/91/59 34/90/59 46/100/59 49/103/59
f 98/104/60 39/95/60 50/105/60 48/106/60
f 39/95/59 103/94/59 51/107/59 50/105/59
f 103/94/59 102/91/59 49/103/59 51/107/59
f 97/98/61 34/90/61 104/93/61 101/108/61
f 39/95/62 98/104/62 54/109/62 105/96/62
f 84/110/63 83/111/63 79/112/63 77/113/63
f 82/114/64 81/115/64 75/116/64 76/117/64
f 71/118/65 69/119/65 96/120/65 93/121/65
f 8/27/66 1/45/66 66/77/66 70/47/66
f 14/30/67 36/41/67 92/122/67 67/123/67
f 32/51/68 5/36/68 68/124/68 89/78/68
f 36/41/69 35/46/69 91/48/69 92/122/69
f 5/36/70 14/30/70 67/123/70 68/124/70
f 57/125/71 58/126/71 66/77/71 90/76/71
f 59/127/71 60/128/71 68/124/71 67/123/71
f 61/129/71 59/127/71 67/123/71 92/122/71
f 58/126/71 62/130/71 70/47/71 66/77/71
f 60/128/71 63/131/71 89/78/71 68/124/71
f 62/130/71 64/132/71 91/48/71 70/47/71
f 63/131/71 61/129/71 92/122/71 89/78/71
f 64/132/71 57/125/71 90/76/71 91/48/71
f 73/133/71 80/134/71 78/135/71 74/136/71
f 76/117/71 75/116/71 77/113/71 79/112/71
f 83/111/72 82/114/72 76/117/72 79/112/72
f 81/115/73 84/110/73 77/113/73 75/116/73
f 86/137/74 85/138/74 73/133/74 74/136/74
f 85/138/75 87/139/75 80/134/75 73/133/75
f 87/139/76 88/140/76 78/135/76 80/134/76
f 88/140/77 86/137/77 74/136/77 78/135/77
f 59/141/78 61/142/78 84/110/78 81/115/78
f 63/143/79 60/144/79 82/114/79 83/111/79
f 60/144/80 59/141/80 81/115/80 82/114/80
f 61/142/81 63/143/81 83/111/81 84/110/81
f 62/145/82 58/146/82 86/137/82 88/140/82
f 64/147/83 62/145/83 88/140/83 87/139/83
f 57/148/84 64/147/84 87/139/84 85/138/84
f 58/146/85 57/148/85 85/138/85 86/137/85
f 71/149/71 65/150/71 90/76/71 89/78/71
f 72/151/71 69/152/71 92/122/71 91/48/71
f 69/152/71 71/149/71 89/78/71 92/122/71
f 65/150/71 72/151/71 91/48/71 90/76/71
f 93/121/71 96/120/71 95/153/71 94/154/71
f 65/155/86 71/118/86 93/121/86 94/154/86
f 72/156/34 65/155/34 94/154/34 95/153/34
f 69/119/87 72/156/87 95/153/87 96/120/87
f 110/157/88 17/158/88 98/104/88 97/98/88
f 53/159/89 52/160/89 104/93/89 105/96/89
f 52/160/89 108/161/89 101/108/89 104/93/89
f 109/162/89 53/159/89 105/96/89 54/109/89
f 108/161/90 110/157/90 97/98/90 101/108/90
f 17/158/91 109/162/91 54/109/91 98/104/91
f 112/163/92 111/164/92 102/91/92 103/94/92
f 99/165/93 100/166/93 105/96/93 104/93/93
f 55/167/93 99/165/93 104/93/93 106/92/93
f 100/166/93 56/168/93 107/97/93 105/96/93
f 56/168/92 112/163/92 103/94/92 107/97/92
f 111/164/92 55/167/92 106/92/92 102/91/92
f 108/161/94 52/160/94 123/169/94 119/170/94
f 99/165/95 55/167/95 113/171/95 117/172/95
f 112/163/96 56/168/96 114/173/96 116/174/96
f 110/157/97 108/161/97 119/170/97 121/175/97
f 118/176/93 117/172/93 113/171/93 114/173/93
f 115/177/92 116/174/92 114/173/92 113/171/92
f 111/164/98 112/163/98 116/174/98 115/177/98
f 55/167/99 111/164/99 115/177/99 113/171/99
f 56/168/100 100/166/100 118/176/100 114/173/100
f 100/166/101 99/165/101 117/172/101 118/176/101
f 120/178/89 119/170/89 123/169/89 124/179/89
f 122/180/102 121/175/102 119/170/102 120/178/102
f 17/158/103 110/157/103 121/175/103 122/180/103
f 109/162/104 17/158/104 122/180/104 120/178/104
f 53/159/105 109/162/105 120/178/105 124/179/105
f 52/160/106 53/159/106 124/179/106 123/169/106
f 152/56/107 149/181/107 180/182/107 173/57/107
f 156/86/108 153/183/108 182/184/108 161/87/108
f 157/185/109 143/55/109 176/58/109 184/186/109
f 153/183/110 137/72/110 168/75/110 182/184/110
f 148/73/111 145/187/111 178/188/111 165/74/111
f 149/181/112 141/85/112 164/88/112 180/182/112
f 160/82/113 157/185/113 184/186/113 169/83/113
f 145/187/114 139/81/114 172/84/114 178/188/114
f 3/3/115 4/11/115 140/22/115
f 46/65/116 47/38/116 144/26/116 158/66/116
f 21/4/117 3/3/117 140/22/117 146/89/117
f 19/189/118 7/14/118 126/23/118 125/35/118
f 27/60/119 19/189/119 125/35/119 127/50/119
f 7/14/120 22/13/120 128/24/120 126/23/120
f 22/13/121 23/190/121 129/59/121 128/24/121
f 26/61/122 27/60/122 127/50/122 130/40/122
f 23/190/123 26/61/123 130/40/123 129/59/123
f 131/16/124 134/15/124 133/191/124 132/63/124
f 135/192/125 131/16/125 132/63/125 136/62/125
f 7/14/126 19/189/126 133/191/126 134/15/126
f 26/61/127 23/190/127 135/192/127 136/62/127
f 23/190/128 22/13/128 131/16/128 135/192/128
f 19/189/129 27/60/129 132/63/129 133/191/129
f 156/86/130 141/85/130 142/64/130 155/54/130
f 148/73/131 137/72/131 138/20/131 147/19/131
f 160/82/132 139/81/132 140/22/132 159/21/132
f 152/56/133 143/55/133 144/26/133 151/25/133
f 139/81/134 145/187/134 146/89/134 140/22/134
f 145/187/135 148/73/135 147/19/135 146/89/135
f 141/85/136 149/181/136 150/71/136 142/64/136
f 149/181/137 152/56/137 151/25/137 150/71/137
f 137/72/138 153/183/138 154/53/138 138/20/138
f 153/183/139 156/86/139 155/54/139 154/53/139
f 143/55/140 157/185/140 158/66/140 144/26/140
f 157/185/141 160/82/141 159/21/141 158/66/141
f 33/52/142 1/45/142 138/20/142 154/53/142
f 162/193/143 163/194/143 164/88/143 161/87/143
f 166/195/144 167/196/144 168/75/144 165/74/144
f 170/197/145 171/198/145 172/84/145 169/83/145
f 174/199/146 175/200/146 176/58/146 173/57/146
f 171/198/147 177/201/147 178/188/147 172/84/147
f 177/201/148 166/195/148 165/74/148 178/188/148
f 163/194/149 179/202/149 180/182/149 164/88/149
f 179/202/150 174/199/150 173/57/150 180/182/150
f 167/196/151 181/203/151 182/184/151 168/75/151
f 181/203/152 162/193/152 161/87/152 182/184/152
f 175/200/153 183/204/153 184/186/153 176/58/153
f 183/204/154 170/197/154 169/83/154 184/186/154
o TV_ECRAN_Cube.026
v 0.434864 -0.350139 -0.126389
v 0.434864 0.350206 -0.126389
v -0.434905 -0.350139 -0.126389
v -0.434905 0.350206 -0.126389
v 0.456280 -0.864326 0.033372
v 0.966146 -0.760324 0.055957
v -1.087772 -0.367519 0.037062
v -0.966177 -0.760310 0.055957
v -0.456322 0.864408 0.033377
v -0.966185 0.760388 0.055957
v 1.087813 0.367589 0.037083
v 0.966342 0.759969 0.055957
v -1.087776 0.367587 0.037063
v 1.087792 -0.367521 0.037078
v -0.456321 -0.864320 0.033370
v 0.456274 0.864247 0.033327
vt 0.951947 0.009982
vt 0.954139 0.029230
vt 0.954139 0.029230
vt 0.951947 0.009982
vt 0.951896 0.056099
vt 0.951637 0.070803
vt 0.951947 0.074697
vt 0.954139 0.055448
vt 0.954139 0.055448
vt 0.951947 0.074691
vt 0.951637 0.070787
vt 0.951896 0.056099
vt 0.951637 0.013876
vt 0.951896 0.028580
vt 0.951896 0.028580
vt 0.951637 0.013875
vn 0.0000 -0.2967 -0.9550
vn -0.1696 0.2085 -0.9632
vn 0.1697 0.2085 -0.9632
vn -0.1696 -0.2085 -0.9632
vn 0.2429 -0.0000 -0.9701
vn -0.2429 0.0000 -0.9701
vn 0.0000 0.2967 -0.9550
vn 0.0000 0.0000 -1.0000
vn 0.1696 -0.2085 -0.9632
usemtl Ecran
s off
f 199/205/155 187/206/155 185/207/155 189/208/155
f 197/209/156 194/210/156 193/211/156 188/212/156
f 186/213/157 200/214/157 196/215/157 195/216/157
f 192/217/158 191/218/158 187/206/158 199/205/158
f 185/207/159 186/213/159 195/216/159 198/219/159
f 191/218/160 197/209/160 188/212/160 187/206/160
f 188/212/161 193/211/161 200/214/161 186/213/161
f 187/206/162 188/212/162 186/213/162 185/207/162
f 189/208/163 185/207/163 198/219/163 190/220/163
