# Blender v2.80 (sub 75) OBJ File: 'TestPoly.blend'
# www.blender.org
mtllib Mesh_Tapis_2.mtl
o Tapis_2_Cube.005
v 8.377285 -0.107965 5.394748
v 8.208969 0.067198 5.226432
v -8.377285 -0.107965 5.394748
v -8.208969 0.067198 5.226432
v 8.377285 -0.107965 -5.394748
v 8.208969 0.067198 -5.226432
v -8.377285 -0.107965 -5.394747
v -8.208969 0.067198 -5.226431
v 8.377285 -0.000070 5.394748
v 8.336377 0.040837 5.353840
v -8.336377 0.040837 5.353840
v -8.377285 -0.000070 5.394748
v -8.336377 0.040837 -5.353839
v -8.377285 -0.000070 -5.394747
v 8.336377 0.040837 -5.353841
v 8.377285 -0.000070 -5.394748
vt 0.936067 0.007604
vt 0.011272 0.007604
vt 0.000000 0.000000
vt 0.947339 0.000000
vt 0.011272 0.987512
vt 0.936067 0.987512
vt 0.947339 0.995117
vt 0.000000 0.995117
vt 0.947339 0.000000
vt 0.956885 0.000000
vt 0.956885 1.000000
vt 0.947340 1.000000
vt 1.000000 0.643973
vt 0.990454 0.643973
vt 0.990454 0.000000
vt 1.000000 0.000000
vt 0.973670 1.000000
vt 0.964124 1.000000
vt 0.964124 0.000000
vt 0.973670 0.000000
vt 0.960504 0.002442
vt 0.960505 0.997558
vt 0.986835 0.641532
vt 0.986835 0.002442
vt 0.960505 0.997558
vt 0.960505 0.002442
vt 0.973670 0.641532
vt 0.973670 0.002442
vt 0.977289 0.000000
vt 0.977289 0.643973
vt 0.986835 0.643973
vt 0.986835 0.000000
vn 0.2026 0.9793 0.0000
vn -0.2026 0.9793 0.0000
vn -0.0000 0.9793 -0.2026
vn 0.0000 0.0000 1.0000
vn 0.0000 1.0000 0.0000
vn -1.0000 0.0000 0.0000
vn -0.0000 0.0000 -1.0000
vn 0.0000 0.9793 0.2026
vn 0.0000 0.7071 0.7071
vn -0.7071 0.7071 0.0000
vn -0.0000 0.7071 -0.7071
vn 0.7071 0.7071 0.0000
vn 1.0000 0.0000 0.0000
usemtl (null)
s off
f 6/1/1 2/2/1 10/3/1 15/4/1
f 4/5/2 8/6/2 13/7/2 11/8/2
f 8/6/3 6/1/3 15/4/3 13/7/3
f 1/9/4 9/10/4 12/11/4 3/12/4
f 8/6/5 4/5/5 2/2/5 6/1/5
f 3/13/6 12/14/6 14/15/6 7/16/6
f 7/17/7 14/18/7 16/19/7 5/20/7
f 2/2/8 4/5/8 11/8/8 10/3/8
f 10/21/9 11/22/9 12/11/9 9/10/9
f 11/23/10 13/24/10 14/15/10 12/14/10
f 13/25/11 15/26/11 16/19/11 14/18/11
f 15/27/12 10/28/12 9/29/12 16/30/12
f 5/31/13 16/30/13 9/29/13 1/32/13
