# Blender v2.80 (sub 75) OBJ File: 'TestPoly.blend'
# www.blender.org
mtllib Mesh_Lamp.mtl
o Lamp_Cylinder.001
v 0.000113 -2.621806 -0.260453
v 0.188692 -2.621806 -0.182342
v 0.266804 -2.621806 0.006238
v 0.188692 -2.621806 0.194818
v 0.000113 -2.621806 0.272929
v -0.188466 -2.621806 0.194818
v -0.266578 -2.621806 0.006238
v -0.188466 -2.621806 -0.182342
v 0.000113 -2.621806 -0.657395
v 0.532817 -2.621806 -0.526466
v 0.753471 -2.621806 0.006238
v 0.532817 -2.621806 0.538942
v 0.000113 -2.621806 0.759596
v -0.469147 -2.621806 0.475498
v -0.663521 -2.621806 0.006238
v -0.469147 -2.621806 -0.463022
v 0.000113 -2.621806 -0.170730
v 0.125248 -2.621806 -0.118896
v 0.177081 -2.621806 0.006238
v 0.125248 -2.621806 0.131372
v 0.000113 -2.621806 0.183206
v -0.125022 -2.621806 0.131372
v -0.176854 -2.621806 0.006238
v -0.125022 -2.621806 -0.118896
v 0.000113 -2.621806 -0.747120
v 0.469373 -2.621806 -0.463022
v 0.663747 -2.621806 0.006238
v 0.469373 -2.621806 0.475498
v 0.000113 -2.621806 0.669871
v -0.532591 -2.621806 0.538942
v -0.753244 -2.621806 0.006238
v -0.532591 -2.621806 -0.526466
v 0.469373 -2.702506 -0.463022
v 0.188692 -2.702506 -0.182342
v 0.266804 -2.702506 0.006238
v 0.663747 -2.702506 0.006238
v 0.469373 -2.702506 0.475498
v 0.188692 -2.702506 0.194818
v 0.000113 -2.702506 0.272929
v 0.000113 -2.702506 0.669871
v -0.188466 -2.702506 -0.182342
v -0.469147 -2.702506 -0.463022
v -0.663521 -2.702506 0.006238
v -0.266578 -2.702506 0.006238
v -0.188466 -2.702506 0.194818
v -0.469147 -2.702506 0.475498
v 0.000113 -2.702506 -0.260453
v 0.000113 -2.702506 -0.657395
v 0.000113 2.972149 -0.609786
v 0.000113 2.942879 -0.579943
v 0.219939 2.942879 -0.536216
v 0.231360 2.972149 -0.563787
v 0.406299 2.942879 -0.411695
v 0.427401 2.972149 -0.432797
v 0.530820 2.942879 -0.225335
v 0.558392 2.972149 -0.236755
v 0.574547 2.942879 -0.005508
v 0.604390 2.972149 -0.005508
v 0.530820 2.942879 0.214317
v 0.558392 2.972149 0.225738
v 0.406299 2.942879 0.400677
v 0.427401 2.972149 0.421780
v 0.219939 2.942879 0.525198
v 0.231360 2.972149 0.552770
v 0.000113 2.942879 0.568925
v 0.000113 2.972149 0.598768
v -0.219713 2.942879 0.525198
v -0.231133 2.972149 0.552770
v -0.406072 2.942879 0.400677
v -0.427175 2.972149 0.421780
v -0.530594 2.942879 0.214317
v -0.558166 2.972149 0.225738
v -0.574320 2.942879 -0.005508
v -0.604164 2.972149 -0.005508
v -0.530594 2.942879 -0.225335
v -0.558166 2.972149 -0.236755
v -0.406072 2.942879 -0.411695
v -0.427175 2.972149 -0.432797
v -0.219713 2.942879 -0.536216
v -0.231133 2.972149 -0.563787
v 0.276969 2.972149 -0.673899
v 0.288390 2.942879 -0.701470
v 0.000113 2.942879 -0.758813
v 0.000113 2.972149 -0.728970
v 0.511677 2.972149 -0.517073
v 0.532779 2.942879 -0.538175
v 0.668503 2.972149 -0.282365
v 0.696075 2.942879 -0.293786
v 0.723573 2.972149 -0.005508
v 0.753417 2.942879 -0.005508
v 0.668503 2.972149 0.271347
v 0.696075 2.942879 0.282768
v 0.511677 2.972149 0.506055
v 0.532779 2.942879 0.527157
v 0.276969 2.972149 0.662881
v 0.288390 2.942879 0.690453
v 0.000113 2.972149 0.717952
v 0.000113 2.942879 0.747795
v -0.276743 2.972149 0.662881
v -0.288163 2.942879 0.690453
v -0.511450 2.972149 0.506055
v -0.532553 2.942879 0.527158
v -0.668277 2.972149 0.271347
v -0.695849 2.942879 0.282768
v -0.723347 2.972149 -0.005508
v -0.753190 2.942879 -0.005508
v -0.668277 2.972149 -0.282365
v -0.695849 2.942879 -0.293786
v -0.511450 2.972149 -0.517073
v -0.532553 2.942879 -0.538175
v -0.276743 2.972149 -0.673900
v -0.288163 2.942879 -0.701470
v 0.000113 -1.959886 -0.598216
v 0.226932 -1.959886 -0.553099
v 0.419220 -1.959886 -0.424616
v 0.547703 -1.959886 -0.232328
v 0.592820 -1.959886 -0.005508
v 0.547703 -1.959886 0.221311
v 0.419220 -1.959886 0.413598
v 0.226932 -1.959886 0.542081
v 0.000113 -1.959886 0.587198
v -0.226706 -1.959886 0.542081
v -0.418994 -1.959886 0.413598
v -0.547477 -1.959886 0.221311
v -0.592594 -1.959886 -0.005508
v -0.547477 -1.959886 -0.232328
v -0.418994 -1.959886 -0.424616
v -0.226706 -1.959886 -0.553099
v 0.000113 -1.959886 -0.740539
v 0.281397 -1.959886 -0.684588
v 0.519858 -1.959886 -0.525253
v 0.679192 -1.959886 -0.286793
v 0.735143 -1.959886 -0.005508
v 0.679192 -1.959886 0.275775
v 0.519858 -1.959886 0.514235
v 0.281397 -1.959886 0.673571
v 0.000113 -1.959886 0.729521
v -0.288163 -1.941963 0.690453
v -0.532553 -1.941963 0.527158
v -0.678966 -1.959886 0.275775
v -0.734917 -1.959886 -0.005508
v -0.678966 -1.959886 -0.286793
v -0.519631 -1.959886 -0.525253
v -0.281170 -1.959886 -0.684588
v 0.000113 -2.922289 -0.721157
v 0.000113 -2.898303 -0.747120
v 0.532817 -2.898303 -0.526466
v 0.514459 -2.922289 -0.508108
v 0.753471 -2.898303 0.006238
v 0.727508 -2.922289 0.006238
v 0.532817 -2.898303 0.538942
v 0.514459 -2.922289 0.520584
v 0.000113 -2.898303 0.759596
v 0.000113 -2.922289 0.733633
v -0.532591 -2.898303 0.538942
v -0.514233 -2.922289 0.520584
v -0.753244 -2.898303 0.006238
v -0.727282 -2.922289 0.006238
v -0.532591 -2.898303 -0.526466
v -0.514233 -2.922289 -0.508108
v 0.000113 2.932445 -0.170730
v 0.010714 2.955432 -0.145136
v 0.105885 2.955432 -0.105573
v 0.125248 2.932445 -0.118896
v 0.153967 2.955432 0.010509
v 0.177081 2.932445 0.006238
v 0.114647 2.955432 0.105779
v 0.125248 2.932445 0.131372
v -0.010488 2.955432 0.157612
v 0.000113 2.932445 0.183206
v -0.105659 2.955432 0.118049
v -0.125022 2.932445 0.131372
v -0.153741 2.955432 0.001967
v -0.176854 2.932445 0.006238
v -0.114420 2.955432 -0.093303
v -0.125022 2.932445 -0.118896
vt 0.782411 0.884397
vt 0.782411 0.993540
vt 0.750595 0.993540
vt 0.750595 0.884397
vt 0.803670 0.884397
vt 0.803670 0.993540
vt 0.713066 0.884397
vt 0.713066 0.993540
vt 0.675537 0.993540
vt 0.675537 0.884397
vt 0.643722 0.993540
vt 0.643722 0.884397
vt 0.622464 0.993540
vt 0.622464 0.884397
vt 0.614998 0.993540
vt 0.614998 0.884397
vt 0.622464 0.993540
vt 0.622464 0.884397
vt 0.643722 0.993540
vt 0.643722 0.884397
vt 0.675537 0.993540
vt 0.675537 0.884397
vt 0.713066 0.993540
vt 0.713066 0.884397
vt 0.750595 0.993540
vt 0.750595 0.884397
vt 0.782411 0.993540
vt 0.782411 0.884397
vt 0.803670 0.993540
vt 0.803670 0.884397
vt 0.811134 0.993540
vt 0.811134 0.884397
vt 0.785745 0.994194
vt 0.791734 0.994194
vt 0.807249 0.994194
vt 0.800080 0.994194
vt 0.787849 0.884397
vt 0.787849 0.993540
vt 0.782156 0.993540
vt 0.782156 0.884397
vt 0.765945 0.884397
vt 0.765945 0.993540
vt 0.782156 0.993540
vt 0.782156 0.884397
vt 0.742595 0.883997
vt 0.767628 0.883997
vt 0.780729 0.883997
vt 0.749685 0.883997
vt 0.713066 0.883997
vt 0.713066 0.883997
vt 0.741684 0.884397
vt 0.741684 0.993540
vt 0.683538 0.883997
vt 0.676448 0.883997
vt 0.713066 0.884397
vt 0.713066 0.993540
vt 0.658506 0.883997
vt 0.645404 0.883997
vt 0.684449 0.884397
vt 0.684449 0.993540
vt 0.641779 0.883997
vt 0.624662 0.883997
vt 0.660188 0.884397
vt 0.660188 0.993540
vt 0.635906 0.883997
vt 0.617377 0.883997
vt 0.643977 0.884397
vt 0.643977 0.993540
vt 0.641779 0.883997
vt 0.624662 0.883997
vt 0.638285 0.884397
vt 0.638285 0.993540
vt 0.658506 0.883997
vt 0.645404 0.883997
vt 0.643977 0.884397
vt 0.643977 0.993540
vt 0.683538 0.883997
vt 0.676448 0.883997
vt 0.660188 0.884397
vt 0.660188 0.993540
vt 0.713066 0.883997
vt 0.713066 0.883997
vt 0.684449 0.884397
vt 0.684449 0.993540
vt 0.742595 0.883997
vt 0.749685 0.883997
vt 0.713066 0.884397
vt 0.713066 0.993540
vt 0.767628 0.883997
vt 0.780729 0.883997
vt 0.741684 0.884397
vt 0.741684 0.993540
vt 0.765945 0.993540
vt 0.765945 0.884397
vt 0.768693 0.994194
vt 0.779664 0.994194
vt 0.784354 0.883997
vt 0.801472 0.883997
vt 0.784354 0.883997
vt 0.790228 0.883997
vt 0.808755 0.883997
vt 0.801472 0.883997
vt 0.743171 0.994194
vt 0.749109 0.994194
vt 0.713066 0.994194
vt 0.713066 0.994194
vt 0.682962 0.994194
vt 0.677024 0.994194
vt 0.657440 0.994194
vt 0.646469 0.994194
vt 0.640387 0.994194
vt 0.626053 0.994194
vt 0.634400 0.994194
vt 0.618883 0.994194
vt 0.640387 0.994194
vt 0.626053 0.994194
vt 0.657440 0.994194
vt 0.646469 0.994194
vt 0.682962 0.994194
vt 0.677024 0.994194
vt 0.713066 0.994194
vt 0.713066 0.994194
vt 0.743171 0.994194
vt 0.749109 0.994194
vt 0.768693 0.994194
vt 0.779664 0.994194
vt 0.785745 0.994194
vt 0.800080 0.994194
vt 0.910687 0.485839
vt 0.910687 0.934872
vt 0.914877 0.934872
vt 0.914878 0.485839
vt 0.900571 0.485839
vt 0.900571 0.934872
vt 0.890454 0.934872
vt 0.890454 0.485839
vt 0.886264 0.934872
vt 0.886264 0.485839
vt 0.890454 0.934872
vt 0.890454 0.485839
vt 0.891531 0.936730
vt 0.888333 0.936731
vt 0.908618 0.936730
vt 0.900916 0.936731
vt 0.900571 0.485839
vt 0.900571 0.934872
vt 0.910687 0.485839
vt 0.910687 0.934872
vt 0.892523 0.936730
vt 0.912808 0.936730
vt 0.885325 0.485839
vt 0.900571 0.485839
vt 0.900571 0.479315
vt 0.885325 0.479315
vt 0.857504 0.485839
vt 0.839665 0.485839
vt 0.839665 0.463486
vt 0.857504 0.463486
vt 0.862633 0.485839
vt 0.846919 0.485839
vt 0.846919 0.479315
vt 0.862633 0.479315
vt 0.879010 0.485839
vt 0.879010 0.479315
vt 0.900571 0.485839
vt 0.900571 0.463486
vt 0.943637 0.485839
vt 0.943637 0.463486
vt 0.862633 0.485839
vt 0.862633 0.479315
vt 0.943637 0.485839
vt 0.961476 0.485839
vt 0.961476 0.463486
vt 0.943637 0.463486
vt 0.857504 0.485839
vt 0.857504 0.463486
vt 0.900571 0.485839
vt 0.900571 0.463486
vt 0.885325 0.485839
vt 0.885325 0.479315
vt 0.900571 0.485839
vt 0.900571 0.479315
vt 0.900571 0.485839
vt 0.900571 0.479315
vt 0.938508 0.485839
vt 0.938508 0.479315
vt 0.915816 0.485839
vt 0.922131 0.485839
vt 0.915816 0.485839
vt 0.954222 0.485839
vt 0.900571 0.485839
vt 0.938508 0.485839
vt 0.915816 0.479315
vt 0.938508 0.479315
vt 0.900571 0.479315
vt 0.915816 0.479315
vt 0.922131 0.479315
vt 0.954222 0.479315
vt 0.942153 0.461547
vt 0.959377 0.461547
vt 0.900571 0.461547
vt 0.858988 0.461547
vt 0.841764 0.461547
vt 0.858988 0.461547
vt 0.900571 0.461547
vt 0.942153 0.461547
vt 0.909610 0.936731
vt 0.900225 0.936730
vn 0.8315 -0.0037 -0.5556
vn 0.5556 -0.0037 -0.8315
vn 0.9808 -0.0037 0.1951
vn 0.8315 -0.0037 0.5556
vn 0.5556 -0.0037 0.8315
vn 0.1951 -0.0037 0.9808
vn -0.1650 -0.0018 0.9863
vn -0.5556 0.0000 0.8315
vn -0.8481 -0.0018 0.5299
vn -0.9808 -0.0037 0.1951
vn -0.9808 -0.0037 -0.1951
vn -0.8315 -0.0037 -0.5556
vn -0.5556 -0.0037 -0.8315
vn -0.1951 -0.0037 -0.9808
vn 0.9808 -0.0037 -0.1951
vn 0.0000 1.0000 0.0000
vn -0.5556 -0.0037 0.8315
vn 0.0000 -1.0000 0.0000
vn -0.8315 -0.0037 0.5556
vn -0.0433 -0.9977 0.0524
vn -0.0628 -0.9936 0.0940
vn 0.1951 -0.0037 -0.9808
vn -0.0318 -0.9977 0.0600
vn -0.3827 0.0000 -0.9239
vn 0.9239 0.0000 0.3827
vn 0.3827 0.0000 0.9239
vn -0.3827 0.0000 0.9239
vn -0.9239 0.0000 -0.3827
vn 0.9239 0.0000 -0.3827
vn -0.9239 0.0000 0.3827
vn 0.3827 0.0000 -0.9239
vn 0.1380 0.7071 -0.6935
vn 0.3929 0.7071 -0.5879
vn 0.5879 0.7071 -0.3928
vn 0.6935 0.7071 -0.1380
vn 0.6935 0.7071 0.1380
vn 0.5879 0.7071 0.3928
vn 0.3929 0.7071 0.5879
vn 0.1380 0.7071 0.6935
vn -0.1380 0.7071 0.6935
vn -0.3928 0.7071 0.5879
vn -0.5879 0.7071 0.3928
vn -0.6935 0.7071 0.1380
vn -0.6935 0.7071 -0.1380
vn -0.5879 0.7071 -0.3928
vn -0.3929 0.7071 -0.5879
vn -0.1380 0.7071 -0.6935
vn -0.5879 0.7071 0.3929
vn -0.5879 0.7071 -0.3929
vn -0.3928 0.7071 -0.5879
vn 0.3928 0.7071 -0.5879
vn 0.3928 0.7071 0.5879
vn -0.1951 -0.0037 0.9808
vn 0.2706 -0.7071 -0.6533
vn 0.6533 -0.7071 -0.2706
vn 0.6533 -0.7071 0.2706
vn 0.2706 -0.7071 0.6533
vn -0.2706 -0.7071 0.6533
vn -0.6533 -0.7071 0.2706
vn -0.6533 -0.7071 -0.2706
vn -0.2706 -0.7071 -0.6533
vn 0.2913 0.6498 -0.7021
vn 0.6533 0.7071 -0.2706
vn 0.7024 0.6498 0.2905
vn 0.2444 0.7696 0.5900
vn -0.2913 0.6498 0.7021
vn -0.6533 0.7071 0.2706
vn -0.7024 0.6498 -0.2905
vn -0.2444 0.7696 -0.5900
usemtl Palette
s off
f 131/1/1 86/2/1 88/3/1 132/4/1
f 130/5/2 82/6/2 86/2/2 131/1/2
f 133/7/3 90/8/3 92/9/3 134/10/3
f 134/10/4 92/9/4 94/11/4 135/12/4
f 135/12/5 94/11/5 96/13/5 136/14/5
f 136/14/6 96/13/6 98/15/6 137/16/6
f 137/16/7 98/15/7 100/17/7 138/18/7
f 138/18/8 100/17/8 102/19/8 139/20/8
f 139/20/9 102/19/9 104/21/9 140/22/9
f 140/22/10 104/21/10 106/23/10 141/24/10
f 141/24/11 106/23/11 108/25/11 142/26/11
f 142/26/12 108/25/12 110/27/12 143/28/12
f 143/28/13 110/27/13 112/29/13 144/30/13
f 144/30/14 112/29/14 83/31/14 129/32/14
f 132/4/15 88/3/15 90/8/15 133/7/15
f 80/33/16 49/34/16 84/35/16 111/36/16
f 113/37/6 50/38/6 79/39/6 128/40/6
f 115/41/17 53/42/17 51/43/17 114/44/17
f 116/45/18 115/46/18 131/47/18 132/48/18
f 117/49/18 116/45/18 132/48/18 133/50/18
f 116/51/19 55/52/19 53/42/19 115/41/19
f 118/53/18 117/49/18 133/50/18 134/54/18
f 117/55/10 57/56/10 55/52/10 116/51/10
f 119/57/18 118/53/18 134/54/18 135/58/18
f 118/59/11 59/60/11 57/56/11 117/55/11
f 120/61/18 119/57/18 135/58/18 136/62/18
f 119/63/12 61/64/12 59/60/12 118/59/12
f 121/65/18 120/61/18 136/62/18 137/66/18
f 120/67/13 63/68/13 61/64/13 119/63/13
f 122/69/20 121/65/20 137/66/20 138/70/20
f 121/71/14 65/72/14 63/68/14 120/67/14
f 123/73/21 122/69/21 138/70/21 139/74/21
f 122/75/22 67/76/22 65/72/22 121/71/22
f 124/77/23 123/73/23 139/74/23 140/78/23
f 123/79/2 69/80/2 67/76/2 122/75/2
f 125/81/18 124/77/18 140/78/18 141/82/18
f 124/83/1 71/84/1 69/80/1 123/79/1
f 126/85/18 125/81/18 141/82/18 142/86/18
f 125/87/15 73/88/15 71/84/15 124/83/15
f 127/89/18 126/85/18 142/86/18 143/90/18
f 126/91/3 75/92/3 73/88/3 125/87/3
f 128/40/5 79/39/5 77/93/5 127/94/5
f 127/94/4 77/93/4 75/92/4 126/91/4
f 78/95/16 80/33/16 111/36/16 109/96/16
f 129/32/22 83/31/22 82/6/22 130/5/22
f 128/97/18 127/89/18 143/90/18 144/98/18
f 114/99/18 113/100/18 129/101/18 130/102/18
f 115/46/18 114/99/18 130/102/18 131/47/18
f 76/103/16 78/95/16 109/96/16 107/104/16
f 74/105/16 76/103/16 107/104/16 105/106/16
f 72/107/16 74/105/16 105/106/16 103/108/16
f 70/109/16 72/107/16 103/108/16 101/110/16
f 68/111/16 70/109/16 101/110/16 99/112/16
f 66/113/16 68/111/16 99/112/16 97/114/16
f 64/115/16 66/113/16 97/114/16 95/116/16
f 62/117/16 64/115/16 95/116/16 93/118/16
f 60/119/16 62/117/16 93/118/16 91/120/16
f 58/121/16 60/119/16 91/120/16 89/122/16
f 56/123/16 58/121/16 89/122/16 87/124/16
f 54/125/16 56/123/16 87/124/16 85/126/16
f 52/127/16 54/125/16 85/126/16 81/128/16
f 49/34/16 52/127/16 81/128/16 84/35/16
f 24/129/24 176/130/24 161/131/24 17/132/24
f 19/133/25 166/134/25 168/135/25 20/136/25
f 20/136/26 168/135/26 170/137/26 21/138/26
f 21/138/27 170/137/27 172/139/27 22/140/27
f 171/141/16 169/142/16 175/143/16 173/144/16
f 23/145/28 174/146/28 176/130/28 24/129/28
f 18/147/29 164/148/29 166/134/29 19/133/29
f 169/142/16 167/149/16 162/150/16 175/143/16
f 6/151/30 7/152/30 44/153/30 45/154/30
f 17/132/31 161/131/31 164/148/31 18/147/31
f 12/155/26 13/156/26 153/157/26 151/158/26
f 14/159/31 29/160/31 40/161/31 46/162/31
f 5/163/27 6/151/27 45/154/27 39/164/27
f 11/165/25 12/155/25 151/158/25 149/166/25
f 10/167/29 11/165/29 149/166/29 147/168/29
f 29/160/24 28/169/24 37/170/24 40/161/24
f 32/171/24 25/172/24 146/173/24 159/174/24
f 25/172/31 10/167/31 147/168/31 146/173/31
f 13/156/27 30/175/27 155/176/27 153/157/27
f 30/175/30 31/177/30 157/178/30 155/176/30
f 4/179/26 5/163/26 39/164/26 38/180/26
f 28/169/28 27/181/28 36/182/28 37/170/28
f 3/183/25 4/179/25 38/180/25 35/184/25
f 31/177/28 32/171/28 159/174/28 157/178/28
f 27/181/30 26/185/30 33/186/30 36/182/30
f 2/187/16 1/188/16 17/132/16 18/147/16
f 3/183/16 2/187/16 18/147/16 19/133/16
f 4/179/16 3/183/16 19/133/16 20/136/16
f 5/163/16 4/179/16 20/136/16 21/138/16
f 6/151/16 5/163/16 21/138/16 22/140/16
f 7/152/16 6/151/16 22/140/16 23/145/16
f 8/189/16 7/152/16 23/145/16 24/129/16
f 1/188/16 8/189/16 24/129/16 17/132/16
f 9/190/16 26/185/16 10/167/16 25/172/16
f 26/185/16 27/181/16 11/165/16 10/167/16
f 27/181/16 28/169/16 12/155/16 11/165/16
f 28/169/16 29/160/16 13/156/16 12/155/16
f 29/160/16 14/159/16 30/175/16 13/156/16
f 14/159/16 15/191/16 31/177/16 30/175/16
f 15/191/16 16/192/16 32/171/16 31/177/16
f 16/192/16 9/190/16 25/172/16 32/171/16
f 39/164/16 45/154/16 46/162/16 40/161/16
f 44/153/16 41/193/16 42/194/16 43/195/16
f 34/196/16 35/184/16 36/182/16 33/186/16
f 38/180/16 39/164/16 40/161/16 37/170/16
f 35/184/16 38/180/16 37/170/16 36/182/16
f 41/193/16 47/197/16 48/198/16 42/194/16
f 47/197/16 34/196/16 33/186/16 48/198/16
f 45/154/16 44/153/16 43/195/16 46/162/16
f 15/191/29 14/159/29 46/162/29 43/195/29
f 7/152/28 8/189/28 41/193/28 44/153/28
f 16/192/25 15/191/25 43/195/25 42/194/25
f 8/189/24 1/188/24 47/197/24 41/193/24
f 1/188/31 2/187/31 34/196/31 47/197/31
f 9/190/26 16/192/26 42/194/26 48/198/26
f 26/185/27 9/190/27 48/198/27 33/186/27
f 2/187/29 3/183/29 35/184/29 34/196/29
f 82/6/32 83/31/32 84/35/32 81/128/32
f 86/2/33 82/6/33 81/128/33 85/126/33
f 88/3/34 86/2/34 85/126/34 87/124/34
f 90/8/35 88/3/35 87/124/35 89/122/35
f 92/9/36 90/8/36 89/122/36 91/120/36
f 94/11/37 92/9/37 91/120/37 93/118/37
f 96/13/38 94/11/38 93/118/38 95/116/38
f 98/15/39 96/13/39 95/116/39 97/114/39
f 100/17/40 98/15/40 97/114/40 99/112/40
f 102/19/41 100/17/41 99/112/41 101/110/41
f 104/21/42 102/19/42 101/110/42 103/108/42
f 106/23/43 104/21/43 103/108/43 105/106/43
f 108/25/44 106/23/44 105/106/44 107/104/44
f 110/27/45 108/25/45 107/104/45 109/96/45
f 112/29/46 110/27/46 109/96/46 111/36/46
f 83/31/47 112/29/47 111/36/47 84/35/47
f 52/127/40 49/34/40 50/38/40 51/43/40
f 54/125/41 52/127/41 51/43/41 53/42/41
f 56/123/48 54/125/48 53/42/48 55/52/48
f 58/121/43 56/123/43 55/52/43 57/56/43
f 60/119/44 58/121/44 57/56/44 59/60/44
f 62/117/49 60/119/49 59/60/49 61/64/49
f 64/115/50 62/117/50 61/64/50 63/68/50
f 66/113/47 64/115/47 63/68/47 65/72/47
f 68/111/32 66/113/32 65/72/32 67/76/32
f 70/109/51 68/111/51 67/76/51 69/80/51
f 72/107/34 70/109/34 69/80/34 71/84/34
f 74/105/35 72/107/35 71/84/35 73/88/35
f 76/103/36 74/105/36 73/88/36 75/92/36
f 78/95/37 76/103/37 75/92/37 77/93/37
f 80/33/52 78/95/52 77/93/52 79/39/52
f 49/34/39 80/33/39 79/39/39 50/38/39
f 113/100/18 128/97/18 144/98/18 129/101/18
f 114/44/53 51/43/53 50/38/53 113/37/53
f 146/173/54 147/168/54 148/199/54 145/200/54
f 147/168/55 149/166/55 150/201/55 148/199/55
f 149/166/56 151/158/56 152/202/56 150/201/56
f 151/158/57 153/157/57 154/203/57 152/202/57
f 153/157/58 155/176/58 156/204/58 154/203/58
f 155/176/59 157/178/59 158/205/59 156/204/59
f 157/178/60 159/174/60 160/206/60 158/205/60
f 159/174/61 146/173/61 145/200/61 160/206/61
f 22/140/30 172/139/30 174/146/30 23/145/30
f 164/148/62 161/131/62 162/150/62 163/207/62
f 166/134/63 164/148/63 163/207/63 165/208/63
f 168/135/64 166/134/64 165/208/64 167/149/64
f 170/137/65 168/135/65 167/149/65 169/142/65
f 172/139/66 170/137/66 169/142/66 171/141/66
f 174/146/67 172/139/67 171/141/67 173/144/67
f 176/130/68 174/146/68 173/144/68 175/143/68
f 161/131/69 176/130/69 175/143/69 162/150/69
f 163/207/16 162/150/16 167/149/16 165/208/16
