# Blender v2.80 (sub 75) OBJ File: 'TestPoly.blend'
# www.blender.org
mtllib Mesh_MirrorTableaux_2.mtl
o Mirroir_Tableaux_2_Cube.001
v -0.088846 -1.628929 1.515501
v -0.088846 1.628929 1.515501
v -0.088846 -1.628929 -1.515501
v -0.088846 1.628929 -1.515501
v 0.085735 -1.969263 1.844269
v 0.085735 1.969263 1.844269
v 0.085735 -1.969263 -1.844268
v 0.085735 1.969263 -1.844268
v 0.121062 -1.628929 -1.515501
v 0.121062 -1.628929 1.515501
v 0.121062 1.628929 1.515501
v 0.121062 1.628929 -1.515501
v -0.088846 -1.909456 -1.796028
v -0.029105 -1.969263 -1.851877
v -0.029105 -1.969263 1.851878
v -0.088846 -1.909456 1.796029
v -0.029105 1.969263 1.851878
v -0.088846 1.909456 1.796029
v -0.029105 1.969263 -1.851877
v -0.088846 1.909456 -1.796028
vt 0.342166 0.105830
vt 0.231377 0.105830
vt 0.231377 0.105830
vt 0.342166 0.105830
vt 0.354461 0.048842
vt 0.354183 0.048842
vt 0.219360 0.048842
vt 0.219082 0.048842
vt 0.342166 0.651356
vt 0.231377 0.651356
vt 0.221123 0.698329
vt 0.352420 0.698329
vt 0.352420 0.058856
vt 0.354461 0.708344
vt 0.354183 0.708344
vt 0.219360 0.708344
vt 0.219082 0.708344
vt 0.221123 0.058856
vt 0.231377 0.651356
vt 0.342166 0.651356
vn 0.0000 1.0000 0.0000
vn 0.0000 -1.0000 0.0000
vn -1.0000 0.0000 0.0000
vn 0.0661 0.0000 -0.9978
vn 0.0661 0.0000 0.9978
vn 0.0000 0.0000 1.0000
vn 0.0000 0.0000 -1.0000
vn -0.7075 -0.7067 0.0000
vn -0.6829 -0.0000 0.7305
vn -0.7075 0.7067 0.0000
vn -0.6829 -0.0000 -0.7305
usemtl Palette
s off
f 3/1/1 1/2/1 10/3/1 9/4/1
f 14/5/2 7/6/2 5/7/2 15/8/2
f 4/9/3 2/10/3 18/11/3 20/12/3
f 3/1/3 4/9/3 20/12/3 13/13/3
f 14/5/4 19/14/4 8/15/4 7/6/4
f 5/7/5 6/16/5 17/17/5 15/8/5
f 8/15/1 19/14/1 17/17/1 6/16/1
f 2/10/3 1/2/3 16/18/3 18/11/3
f 10/3/3 11/19/3 12/20/3 9/4/3
f 4/9/6 3/1/6 9/4/6 12/20/6
f 1/2/7 2/10/7 11/19/7 10/3/7
f 2/10/2 4/9/2 12/20/2 11/19/2
f 14/5/8 15/8/8 16/18/8 13/13/8
f 15/8/9 17/17/9 18/11/9 16/18/9
f 17/17/10 19/14/10 20/12/10 18/11/10
f 19/14/11 14/5/11 13/13/11 20/12/11
f 1/2/3 3/1/3 13/13/3 16/18/3
