# Blender v2.80 (sub 75) OBJ File: 'TestPoly.blend'
# www.blender.org
mtllib Mesh_MirrorTableaux_1.mtl
o Mirroir_Tableaux_1_Cube.020
v 0.328995 -4.738840 1.980814
v 0.328995 -2.555225 1.980814
v 0.328995 -4.738840 0.480351
v 0.328995 -2.555225 0.480351
v 0.232203 -4.738840 0.475647
v 0.232203 -4.738840 1.985519
v 0.232203 -2.555225 1.985519
v 0.232203 -2.555225 0.475647
v 0.348581 -4.550150 0.614091
v 0.348581 -4.550150 1.847075
v 0.348581 -2.743915 1.847075
v 0.348581 -2.743915 0.614091
v 0.354420 -2.238255 0.403904
v 0.354420 -0.243359 0.403904
v 0.354420 -2.238255 -3.961094
v 0.354420 -0.243359 -3.961094
v 0.192547 -0.243359 -3.961094
v 0.192547 -2.238255 -3.961094
v 0.192547 -2.238255 0.403904
v 0.192547 -0.243359 0.403904
v 0.295528 -0.437521 -3.766932
v 0.295528 -2.044092 -3.766932
v 0.295528 -2.044092 0.209741
v 0.295528 -0.437521 0.209741
v 0.333821 -2.238255 5.158062
v 0.333821 2.370630 5.158062
v 0.333821 -2.238255 0.793065
v 0.333821 2.370630 0.793065
v 0.297703 2.059650 1.047866
v 0.297703 -1.983454 1.047866
v 0.297703 -1.983454 4.903262
v 0.297703 2.059650 4.903262
v -0.213297 0.440432 0.027499
v -0.213297 2.743448 0.006878
v -0.213297 0.426683 -2.069004
v -0.213297 0.179220 -1.409122
v -0.213297 0.179220 -0.591138
v -0.213297 2.949667 -0.591138
v -0.213297 1.082354 0.226846
v -0.213297 1.936644 0.226846
v -0.213297 1.936644 -2.227106
v -0.213297 1.082354 -2.227106
v -0.267447 1.230003 -1.409122
v -0.267447 0.367666 -1.380271
v -0.267447 1.230003 -0.591138
v -0.267447 2.777225 -1.391890
v -0.267447 2.083164 -1.409122
v -0.267447 2.777225 -0.617799
v -0.267447 2.083164 -0.591138
v -0.267447 1.246086 -2.068008
v -0.267447 1.250517 0.067749
v -0.267447 2.056856 0.067749
v -0.267447 0.574099 -1.930738
v -0.267447 2.605104 -0.118663
v -0.267447 0.585888 -0.106531
v -0.267447 2.688509 -1.796646
v 0.232203 -4.617167 1.896246
v 0.291667 -4.550150 1.847075
v 0.232203 -2.676898 1.896246
v 0.291667 -2.743915 1.847075
v 0.291667 -4.550150 0.614091
v 0.232203 -4.617167 0.564919
v 0.232203 -2.676898 0.564919
v 0.291667 -2.743915 0.614091
v 0.192547 -2.103556 0.269205
v 0.252012 -2.044092 0.209741
v 0.252012 -0.437521 0.209741
v 0.192547 -0.378056 0.269205
v 0.192547 -2.103556 -3.826395
v 0.252012 -2.044092 -3.766932
v 0.252012 -0.437521 -3.766932
v 0.192547 -0.378056 -3.826395
v 0.171948 -2.042917 4.962726
v 0.231413 -1.983454 4.903262
v 0.231413 2.059650 4.903262
v 0.171948 2.119116 4.962726
v 0.171948 -2.042917 0.988401
v 0.231413 -1.983454 1.047866
v 0.231413 2.059650 1.047866
v 0.171948 2.119116 0.988401
v 0.171948 2.254988 0.852530
v 0.230486 2.334768 0.793065
v 0.230554 -2.238255 0.793065
v 0.171948 -2.178789 0.852530
v 0.230554 -2.238255 5.158062
v 0.171948 -2.178789 5.098597
v 0.171948 2.254988 5.098597
v 0.230486 2.334768 5.158062
v -0.304300 0.542492 -0.056436
v -0.304300 2.651825 -0.071740
v -0.304300 0.529970 -1.982417
v -0.304300 2.740025 -1.839351
v -0.244836 0.367666 -0.623349
v -0.304300 0.308203 -0.611310
v -0.304300 0.308203 -1.391054
v -0.304300 2.836691 -1.398330
v -0.304300 2.836691 -0.607834
v -0.304300 2.062851 -2.127474
v -0.244836 2.050726 -2.068008
v -0.304300 1.240076 -2.127474
v -0.304300 2.066690 0.127213
v -0.304300 1.242849 0.127213
v -0.304300 1.236015 -2.167641
v -0.250481 1.142683 -2.227106
v -0.247427 0.437691 -2.069004
v -0.304300 0.500162 -2.017326
v -0.247147 0.190138 -1.409122
v -0.304300 0.268034 -1.398338
v -0.243257 2.945274 -0.591138
v -0.304300 2.876860 -0.601103
v -0.304300 2.683384 -0.040044
v -0.243392 2.739037 0.006878
v -0.250300 1.142391 0.226846
v -0.304300 1.237671 0.167381
v -0.304300 0.513178 -0.022596
v -0.246474 0.451132 0.027499
v -0.304300 0.268034 -0.603177
v -0.246839 0.190039 -0.591138
v -0.242438 2.835411 -1.910901
v -0.304300 2.774824 -1.868196
v -0.304300 2.876860 -1.402680
v -0.242947 2.945320 -1.409122
v -0.251254 1.997757 -2.227106
v -0.304300 2.071041 -2.167641
v -0.304300 2.073332 0.167381
v -0.250160 1.995996 0.226846
vt 0.799166 0.104020
vt 0.759496 0.104020
vt 0.759496 0.104020
vt 0.799166 0.104020
vt 0.755041 0.007498
vt 0.755041 0.113150
vt 0.755193 0.113150
vt 0.755193 0.007498
vt 0.803469 0.007498
vt 0.803469 0.113150
vt 0.803620 0.113150
vt 0.803620 0.007498
vt 0.799166 0.016628
vt 0.799166 0.016628
vt 0.759496 0.016628
vt 0.759496 0.016628
vt 0.983165 0.860742
vt 0.983165 0.860742
vt 0.842743 0.860742
vt 0.842743 0.860742
vt 0.757914 0.013385
vt 0.757914 0.107263
vt 0.800748 0.107263
vt 0.800748 0.013385
vt 0.835887 0.941292
vt 0.835887 0.941292
vt 0.835887 0.113709
vt 0.835887 0.113709
vt 0.842743 0.194257
vt 0.842743 0.194257
vt 0.990021 0.941292
vt 0.990021 0.941292
vt 0.990021 0.113709
vt 0.990021 0.113709
vt 0.374388 0.093539
vt 0.374388 0.093539
vt 0.206945 0.093539
vt 0.206945 0.093539
vt 0.983165 0.194257
vt 0.983165 0.194257
vt 0.985264 0.169588
vt 0.840644 0.169588
vt 0.840644 0.885411
vt 0.985264 0.885411
vt 0.195879 0.070792
vt 0.385454 0.070792
vt 0.385454 0.070792
vt 0.195879 0.070792
vt 0.206945 0.454490
vt 0.206945 0.454490
vt 0.385454 0.482253
vt 0.385454 0.479051
vt 0.195879 0.479051
vt 0.195879 0.482253
vt 0.374388 0.454490
vt 0.374388 0.454490
vt 0.376970 0.459799
vt 0.382871 0.471929
vt 0.198462 0.471929
vt 0.204363 0.459799
vt 0.198462 0.076101
vt 0.204363 0.088231
vt 0.376970 0.088231
vt 0.382871 0.076101
vt 0.315585 0.965607
vt 0.316108 0.968730
vt 0.253786 0.968730
vt 0.254125 0.965607
vt 0.364982 0.780131
vt 0.364982 0.779299
vt 0.380481 0.829208
vt 0.380481 0.833876
vt 0.253286 0.974052
vt 0.316883 0.974049
vt 0.316883 0.974390
vt 0.189688 0.895629
vt 0.189688 0.900380
vt 0.214273 0.965839
vt 0.380481 0.900243
vt 0.380481 0.895629
vt 0.363378 0.958357
vt 0.363378 0.958014
vt 0.253286 0.758990
vt 0.316883 0.758990
vt 0.316883 0.759832
vt 0.253286 0.759839
vt 0.197435 0.841471
vt 0.194311 0.841155
vt 0.205998 0.783943
vt 0.208712 0.786261
vt 0.315315 0.769019
vt 0.315947 0.765896
vt 0.361087 0.784955
vt 0.358456 0.787234
vt 0.217593 0.960796
vt 0.219836 0.958091
vt 0.197435 0.905441
vt 0.194311 0.906078
vt 0.372734 0.905740
vt 0.375858 0.906256
vt 0.359730 0.953687
vt 0.357266 0.951233
vt 0.254690 0.769019
vt 0.254124 0.765896
vt 0.189688 0.829208
vt 0.189688 0.833899
vt 0.201980 0.778230
vt 0.201980 0.779086
vt 0.375858 0.841284
vt 0.372734 0.841687
vt 0.316883 0.907021
vt 0.368111 0.904975
vt 0.353618 0.947601
vt 0.314810 0.960983
vt 0.202058 0.904498
vt 0.253286 0.907021
vt 0.254625 0.960983
vt 0.223156 0.954086
vt 0.255529 0.773642
vt 0.314379 0.773642
vt 0.316883 0.840688
vt 0.253286 0.840688
vt 0.212730 0.789692
vt 0.202058 0.841938
vt 0.354561 0.790608
vt 0.368111 0.842283
vt 0.214273 0.965507
vn 0.0000 -1.0000 0.0000
vn 0.0485 0.0000 -0.9988
vn 0.0486 0.0000 0.9988
vn 0.0000 1.0000 0.0000
vn 0.0000 0.0000 -1.0000
vn 0.0000 0.0000 1.0000
vn -1.0000 0.0000 0.0000
vn -0.3279 0.9447 0.0000
vn -0.2781 -0.2759 0.9201
vn -0.1451 0.9894 0.0000
vn 0.4888 0.3036 -0.8179
vn 0.2180 0.2656 0.9391
vn -0.3070 -0.9517 0.0000
vn -0.1373 0.9364 0.3229
vn -0.2848 -0.8831 0.3729
vn -0.2891 -0.8963 -0.3361
vn -0.2213 -0.2212 -0.9498
vn -0.9997 -0.0127 -0.0198
vn -0.9998 -0.0131 0.0144
vn -0.9998 0.0136 -0.0173
vn -0.9998 -0.0125 -0.0167
vn -0.7480 0.6637 0.0000
vn -0.6373 0.0000 -0.7707
vn -0.7480 -0.6637 0.0000
vn -0.6373 0.0000 0.7707
vn -0.7071 0.0000 0.7071
vn -0.7071 0.7071 0.0000
vn -0.7071 -0.7071 0.0000
vn -0.7071 0.0000 -0.7071
vn -0.7124 -0.0000 -0.7017
vn -0.7122 -0.7019 0.0000
vn -0.8063 0.5916 0.0000
vn -0.7124 -0.0000 0.7017
vn -0.7879 -0.1305 -0.6018
vn -0.8025 -0.5587 -0.2094
vn -0.7441 0.6316 0.2177
vn -0.7974 -0.1620 0.5813
vn -0.7990 -0.5539 0.2341
vn -0.8057 -0.5923 0.0001
vn -0.7425 0.6542 -0.1437
vn -0.7454 0.6666 -0.0001
vn -0.6165 0.2951 -0.7300
vn -0.7441 -0.0003 -0.6681
vn -0.6356 0.2354 0.7353
vn -0.7398 0.0001 0.6728
vn -0.8500 0.1054 0.5161
vn -0.8500 0.4932 0.1850
vn -0.8500 -0.4980 -0.1717
vn -0.8500 0.1336 -0.5096
vn -0.7781 0.5726 -0.2582
vn -0.7770 0.6294 0.0114
vn -0.8500 -0.5146 0.1128
vn -0.8500 -0.5268 0.0000
vn -0.7780 -0.2573 0.5732
vn -0.7768 0.0108 0.6297
vn -0.8500 -0.1696 -0.4987
vn -0.8500 0.0000 -0.5268
usemtl Palette
s off
f 60/1/1 64/2/1 12/3/1 11/4/1
f 5/5/2 8/6/2 4/7/2 3/8/2
f 1/9/3 2/10/3 7/11/3 6/12/3
f 5/5/1 3/8/1 1/9/1 6/12/1
f 4/7/4 8/6/4 7/11/4 2/10/4
f 58/13/5 60/1/5 11/4/5 10/14/5
f 61/15/4 58/13/4 10/14/4 9/16/4
f 64/2/6 61/15/6 9/16/6 12/3/6
f 66/17/4 23/18/4 22/19/4 70/20/4
f 10/14/7 11/4/7 12/3/7 9/16/7
f 62/21/7 63/22/7 8/6/7 5/5/7
f 59/23/7 57/24/7 6/12/7 7/11/7
f 63/22/7 59/23/7 7/11/7 8/6/7
f 15/25/5 18/26/5 17/27/5 16/28/5
f 70/20/6 22/19/6 21/29/6 71/30/6
f 19/31/6 13/32/6 14/33/6 20/34/6
f 15/25/1 13/32/1 19/31/1 18/26/1
f 17/27/4 20/34/4 14/33/4 16/28/4
f 74/35/4 31/36/4 30/37/4 78/38/4
f 67/39/5 24/40/5 23/18/5 66/17/5
f 71/30/1 21/29/1 24/40/1 67/39/1
f 68/41/7 20/34/7 17/27/7 72/42/7
f 22/19/7 23/18/7 24/40/7 21/29/7
f 72/42/7 17/27/7 18/26/7 69/43/7
f 65/44/7 19/31/7 20/34/7 68/41/7
f 69/43/7 18/26/7 19/31/7 65/44/7
f 27/45/1 25/46/1 85/47/1 83/48/1
f 78/38/6 30/37/6 29/49/6 79/50/6
f 85/47/6 25/46/6 26/51/6 88/52/6
f 27/45/5 83/48/5 82/53/5 28/54/5
f 82/53/8 88/52/8 26/51/8 28/54/8
f 75/55/5 32/56/5 31/36/5 74/35/5
f 79/50/1 29/49/1 32/56/1 75/55/1
f 76/57/7 87/58/7 81/59/7 80/60/7
f 30/37/7 31/36/7 32/56/7 29/49/7
f 80/60/7 81/59/7 84/61/7 77/62/7
f 73/63/7 86/64/7 87/58/7 76/57/7
f 77/62/7 84/61/7 86/64/7 73/63/7
f 97/65/7 110/66/7 121/67/7 96/68/7
f 116/69/9 33/70/9 39/71/9 113/72/9
f 122/73/10 109/74/10 38/75/10
f 41/76/11 123/77/11 119/78/11
f 126/79/12 40/80/12 34/81/12 112/82/12
f 36/83/13 37/84/13 118/85/13 107/86/13
f 109/74/14 112/82/14 34/81/14 38/75/14
f 100/87/7 103/88/7 106/89/7 91/90/7
f 94/91/7 117/92/7 115/93/7 89/94/7
f 96/68/7 121/67/7 120/95/7 92/96/7
f 98/97/7 124/98/7 103/88/7 100/87/7
f 101/99/7 125/100/7 111/101/7 90/102/7
f 113/72/6 39/71/6 40/80/6 126/79/6
f 37/84/15 33/70/15 116/69/15 118/85/15
f 95/103/7 108/104/7 117/92/7 94/91/7
f 92/96/7 120/95/7 124/98/7 98/97/7
f 42/105/5 104/106/5 123/77/5 41/76/5
f 35/107/16 36/83/16 107/86/16 105/108/16
f 89/94/7 115/93/7 114/109/7 102/110/7
f 90/102/7 111/101/7 110/66/7 97/65/7
f 35/107/17 105/108/17 104/106/17 42/105/17
f 49/111/7 52/112/7 54/113/7 48/114/7
f 99/115/18 47/116/18 46/117/18 56/118/18
f 47/116/7 49/111/7 48/114/7 46/117/7
f 44/119/19 93/120/19 45/121/19 43/122/19
f 43/122/7 45/121/7 49/111/7 47/116/7
f 53/123/7 44/119/7 43/122/7 50/124/7
f 50/124/20 43/122/20 47/116/20 99/115/20
f 93/120/21 55/125/21 51/126/21 45/121/21
f 45/121/7 51/126/7 52/112/7 49/111/7
f 102/110/7 114/109/7 125/100/7 101/99/7
f 91/90/7 106/89/7 108/104/7 95/103/7
f 62/21/22 57/24/22 58/13/22 61/15/22
f 57/24/23 59/23/23 60/1/23 58/13/23
f 59/23/24 63/22/24 64/2/24 60/1/24
f 63/22/25 62/21/25 61/15/25 64/2/25
f 72/42/26 69/43/26 70/20/26 71/30/26
f 66/17/27 70/20/27 69/43/27 65/44/27
f 71/30/28 67/39/28 68/41/28 72/42/28
f 67/39/29 66/17/29 65/44/29 68/41/29
f 82/53/30 83/48/30 84/61/30 81/59/30
f 86/64/31 84/61/31 83/48/31 85/47/31
f 81/59/32 87/58/32 88/52/32 82/53/32
f 87/58/33 86/64/33 85/47/33 88/52/33
f 80/60/26 77/62/26 78/38/26 79/50/26
f 74/35/27 78/38/27 77/62/27 73/63/27
f 79/50/28 75/55/28 76/57/28 80/60/28
f 75/55/29 74/35/29 73/63/29 76/57/29
f 104/106/34 105/108/34 106/89/34 103/88/34
f 108/104/35 106/89/35 105/108/35 107/86/35
f 110/66/36 111/101/36 112/82/36 109/74/36
f 114/109/37 115/93/37 116/69/37 113/72/37
f 115/93/38 117/92/38 118/85/38 116/69/38
f 117/92/39 108/104/39 107/86/39 118/85/39
f 120/95/40 121/67/40 122/73/40 119/127/40
f 121/67/41 110/66/41 109/74/41 122/73/41
f 119/127/42 123/77/42 124/98/42 120/95/42
f 123/77/43 104/106/43 103/88/43 124/98/43
f 111/101/44 125/100/44 126/79/44 112/82/44
f 125/100/45 114/109/45 113/72/45 126/79/45
f 100/87/46 91/90/46 53/123/46 50/124/46
f 44/119/47 53/123/47 91/90/47 95/103/47
f 48/114/48 54/113/48 90/102/48 97/65/48
f 51/126/49 55/125/49 89/94/49 102/110/49
f 55/125/50 93/120/50 94/91/50 89/94/50
f 93/120/51 44/119/51 95/103/51 94/91/51
f 56/118/52 46/117/52 96/68/52 92/96/52
f 46/117/53 48/114/53 97/65/53 96/68/53
f 92/96/54 98/97/54 99/115/54 56/118/54
f 98/97/55 100/87/55 50/124/55 99/115/55
f 54/113/56 52/112/56 101/99/56 90/102/56
f 52/112/57 51/126/57 102/110/57 101/99/57
f 57/24/7 62/21/7 5/5/7 6/12/7
