# Blender v2.80 (sub 75) OBJ File: 'TestPoly.blend'
# www.blender.org
mtllib Mesh_Tapis_3.mtl
o Tapis_3_Cube.007
v 0.595882 -0.091302 1.716212
v 0.595882 -0.091302 -2.202995
v 4.515091 -0.091302 1.716212
v 4.515091 -0.091302 -2.202995
v 3.766832 -0.091302 -2.666082
v 2.555487 -0.091302 -2.881311
v 1.344141 -0.091302 -2.666082
v 1.344141 -0.091302 2.179299
v 2.555487 -0.091302 2.394529
v 3.766832 -0.091302 2.179299
v 0.132795 -0.091302 -1.454737
v -0.082434 -0.091302 -0.243392
v 0.132795 -0.091302 0.967954
v 4.978178 -0.091302 0.967954
v 5.193407 -0.091302 -0.243392
v 4.978178 -0.091302 -1.454737
v 3.883162 0.070512 -1.571067
v 4.029457 0.070512 -0.243392
v 3.883162 0.070512 1.084284
v 2.555487 0.070512 -1.717360
v 2.555487 0.070512 -0.243392
v 2.555487 0.070512 1.230578
v 1.227812 0.070512 -1.571067
v 1.081518 0.070512 -0.243392
v 1.227812 0.070512 1.084284
v 0.635143 0.070512 1.676952
v 0.595882 -0.027964 1.716212
v 0.635611 0.070512 -2.163268
v 0.595882 -0.027964 -2.202995
v 4.475046 0.070512 1.676266
v 4.515091 -0.027964 1.716212
v 4.475159 0.070512 -2.163063
v 4.515091 -0.027964 -2.202995
v 1.336815 0.070512 -2.597121
v 1.344141 -0.027964 -2.666082
v 2.555487 0.070512 -2.813586
v 2.555487 -0.027964 -2.881311
v 3.766832 -0.027964 -2.666082
v 3.774173 0.070512 -2.596984
v 3.774051 0.070512 2.111349
v 3.766832 -0.027964 2.179299
v 2.555487 0.070512 2.328601
v 2.555487 -0.027964 2.394529
v 1.344141 -0.027964 2.179299
v 1.336960 0.070512 2.111698
v 0.201151 0.070512 0.975215
v 0.132795 -0.027964 0.967954
v -0.015202 0.070512 -0.243392
v -0.082434 -0.027964 -0.243392
v 0.132795 -0.027964 -1.454737
v 0.201466 0.070512 -1.462032
v 4.909225 0.070512 -1.462062
v 4.978178 -0.027964 -1.454737
v 5.125933 0.070512 -0.243392
v 5.193407 -0.027964 -0.243392
v 4.978178 -0.027964 0.967954
v 4.909176 0.070512 0.975285
v -2.688452 -0.087475 2.697150
v -2.688452 -0.087475 0.272966
v -0.264267 -0.087475 2.697150
v -0.264267 -0.087475 0.272966
v -0.727095 -0.087475 -0.013472
v -1.476358 -0.087475 -0.146600
v -2.225624 -0.087475 -0.013472
v -2.225624 -0.087475 2.983587
v -1.476358 -0.087475 3.116715
v -0.727095 -0.087475 2.983587
v -2.974888 -0.087475 0.735793
v -3.108015 -0.087475 1.485058
v -2.974888 -0.087475 2.234323
v 0.022171 -0.087475 2.234323
v 0.155298 -0.087475 1.485058
v 0.022171 -0.087475 0.735793
v -0.655138 0.074340 0.663838
v -0.564650 0.074340 1.485058
v -0.655138 0.074340 2.306277
v -1.476358 0.074340 0.573349
v -1.476358 0.074340 1.485058
v -1.476358 0.074340 2.396766
v -2.297579 0.074340 0.663838
v -2.388067 0.074340 1.485058
v -2.297579 0.074340 2.306277
v -2.664167 0.074340 2.672866
v -2.688452 -0.024137 2.697150
v -2.663877 0.074340 0.297538
v -2.688452 -0.024137 0.272966
v -0.289036 0.074340 2.672441
v -0.264267 -0.024137 2.697150
v -0.288967 0.074340 0.297665
v -0.264267 -0.024137 0.272966
v -2.230154 0.074340 0.029183
v -2.225624 -0.024137 -0.013472
v -1.476358 0.074340 -0.104710
v -1.476358 -0.024137 -0.146600
v -0.727095 -0.024137 -0.013472
v -0.722553 0.074340 0.029268
v -0.722628 0.074340 2.941557
v -0.727095 -0.024137 2.983587
v -1.476358 0.074340 3.075936
v -1.476358 -0.024137 3.116715
v -2.225624 -0.024137 2.983587
v -2.230066 0.074340 2.941773
v -2.932608 0.074340 2.238814
v -2.974888 -0.024137 2.234323
v -3.066429 0.074340 1.485058
v -3.108015 -0.024137 1.485058
v -2.974888 -0.024137 0.735793
v -2.932413 0.074340 0.731280
v -0.020479 0.074340 0.731262
v 0.022171 -0.024137 0.735793
v 0.113564 0.074340 1.485058
v 0.155298 -0.024137 1.485058
v 0.022171 -0.024137 2.234323
v -0.020510 0.074340 2.238857
v -1.279152 -0.087475 -0.122055
v -2.198872 -0.087475 -1.441903
v 0.040697 -0.087475 -1.041774
v -0.879023 -0.087475 -2.361623
v -1.239681 -0.087475 -2.341979
v -1.698128 -0.087475 -2.130196
v -2.055557 -0.087475 -1.773447
v -0.918493 -0.087475 -0.141697
v -0.460047 -0.087475 -0.353482
v -0.102617 -0.087475 -0.710229
v -2.179230 -0.087475 -1.081244
v -1.967445 -0.087475 -0.622798
v -1.610697 -0.087475 -0.265368
v 0.021055 -0.087475 -1.402432
v -0.190729 -0.087475 -1.860878
v -0.547478 -0.087475 -2.218308
v -0.943539 0.074340 -2.000517
v -0.582706 0.074340 -1.587734
v -0.320408 0.074340 -1.106290
v -1.424982 0.074340 -1.738218
v -1.079088 0.074340 -1.241838
v -0.733191 0.074340 -0.745459
v -1.837767 0.074340 -1.377386
v -1.575468 0.074340 -0.895943
v -1.214636 0.074340 -0.483160
v -1.275145 0.074340 -0.144489
v -1.279152 -0.024137 -0.122055
v -2.176170 0.074340 -1.437847
v -2.198872 -0.024137 -1.441903
v 0.017838 0.074340 -1.045829
v 0.040697 -0.024137 -1.041774
v -0.883101 0.074340 -2.338803
v -0.879023 -0.024137 -2.361623
v -2.041842 0.074340 -1.748505
v -2.055557 -0.024137 -1.773447
v -1.682234 0.074340 -2.107388
v -1.698128 -0.024137 -2.130196
v -1.239681 -0.024137 -2.341979
v -1.220995 0.074340 -2.320433
v -0.116133 0.074340 -0.734807
v -0.102617 -0.024137 -0.710229
v -0.475519 0.074340 -0.375684
v -0.460047 -0.024137 -0.353482
v -0.918493 -0.024137 -0.141697
v -0.936775 0.074340 -0.162777
v -1.585974 0.074340 -0.278964
v -1.610697 -0.024137 -0.265368
v -1.944803 0.074340 -0.638577
v -1.967445 -0.024137 -0.622798
v -2.179230 -0.024137 -1.081244
v -2.157816 0.074340 -1.099815
v -0.572416 0.074340 -2.204595
v -0.547478 -0.024137 -2.218308
v -0.213453 0.074340 -1.845044
v -0.190729 -0.024137 -1.860878
v 0.021055 -0.024137 -1.402432
v -0.000463 0.074340 -1.383771
vt 0.461579 0.483345
vt 0.461579 0.483345
vt 0.454841 0.561504
vt 0.454841 0.561504
vt 0.477267 0.849563
vt 0.477267 0.849563
vt 0.494849 0.879519
vt 0.494849 0.879519
vt 0.559646 0.779821
vt 0.559646 0.779821
vt 0.566385 0.701662
vt 0.566385 0.701662
vt 0.533205 0.483897
vt 0.526803 0.389905
vt 0.543290 0.417971
vt 0.555237 0.475814
vt 0.456261 0.559593
vt 0.462573 0.486351
vt 0.475575 0.433305
vt 0.477392 0.531149
vt 0.545772 0.836408
vt 0.545772 0.836408
vt 0.566060 0.584642
vt 0.566060 0.584642
vt 0.556687 0.475282
vt 0.556687 0.475282
vt 0.526377 0.383647
vt 0.526377 0.383647
vt 0.500054 0.385091
vt 0.500054 0.385091
vt 0.477947 0.845121
vt 0.466020 0.787341
vt 0.488021 0.779269
vt 0.494419 0.873207
vt 0.543834 0.732018
vt 0.541594 0.605354
vt 0.564674 0.585815
vt 0.564985 0.703546
vt 0.545650 0.829830
vt 0.558646 0.776790
vt 0.456589 0.677319
vt 0.479631 0.657812
vt 0.455166 0.678525
vt 0.455166 0.678525
vt 0.504713 0.493853
vt 0.510613 0.631583
vt 0.464538 0.787885
vt 0.464538 0.787885
vt 0.516513 0.769314
vt 0.521172 0.878075
vt 0.521172 0.878075
vt 0.475454 0.426758
vt 0.475454 0.426758
vt 0.520902 0.871770
vt 0.543958 0.413604
vt 0.543958 0.413604
vt 0.500323 0.391374
vt 0.500475 0.132392
vt 0.500475 0.132392
vt 0.496307 0.180737
vt 0.496307 0.180737
vt 0.510179 0.358912
vt 0.510179 0.358912
vt 0.521054 0.377441
vt 0.521054 0.377441
vt 0.561134 0.315774
vt 0.561134 0.315774
vt 0.565302 0.267430
vt 0.565302 0.267430
vt 0.544779 0.132733
vt 0.540819 0.074596
vt 0.551017 0.091955
vt 0.558407 0.127733
vt 0.497186 0.179554
vt 0.501090 0.134251
vt 0.509132 0.101440
vt 0.510256 0.161960
vt 0.552552 0.350775
vt 0.552552 0.350775
vt 0.565101 0.195048
vt 0.565101 0.195048
vt 0.559303 0.127404
vt 0.559303 0.127404
vt 0.540555 0.070725
vt 0.540555 0.070725
vt 0.524273 0.071618
vt 0.524273 0.071618
vt 0.510599 0.356164
vt 0.503222 0.320426
vt 0.516830 0.315433
vt 0.520788 0.373537
vt 0.551353 0.286206
vt 0.549968 0.207859
vt 0.564244 0.195774
vt 0.564436 0.268595
vt 0.552476 0.346706
vt 0.560515 0.313899
vt 0.497389 0.252373
vt 0.511641 0.240307
vt 0.496508 0.253118
vt 0.496508 0.253118
vt 0.527155 0.138891
vt 0.530805 0.224083
vt 0.502306 0.320762
vt 0.502306 0.320762
vt 0.534454 0.309275
vt 0.537336 0.376548
vt 0.537336 0.376548
vt 0.509057 0.097391
vt 0.509057 0.097391
vt 0.537169 0.372648
vt 0.551430 0.089254
vt 0.551430 0.089254
vt 0.524440 0.075504
vt 0.466390 0.208655
vt 0.466390 0.208655
vt 0.459995 0.227946
vt 0.459995 0.227946
vt 0.452341 0.348350
vt 0.452341 0.348350
vt 0.456681 0.376780
vt 0.456681 0.376780
vt 0.483765 0.410804
vt 0.483765 0.410804
vt 0.490160 0.391513
vt 0.490160 0.391513
vt 0.490482 0.283563
vt 0.493287 0.245231
vt 0.497358 0.271882
vt 0.498328 0.303826
vt 0.460574 0.228784
vt 0.466566 0.210704
vt 0.473745 0.206404
vt 0.469192 0.241249
vt 0.476106 0.415386
vt 0.476106 0.415386
vt 0.496228 0.351766
vt 0.496228 0.351766
vt 0.498845 0.305159
vt 0.498845 0.305159
vt 0.493474 0.242679
vt 0.493474 0.242679
vt 0.484533 0.215704
vt 0.484533 0.215704
vt 0.452805 0.347563
vt 0.451838 0.315663
vt 0.459673 0.335896
vt 0.456869 0.374206
vt 0.480964 0.378210
vt 0.486896 0.333218
vt 0.495699 0.350715
vt 0.489590 0.390687
vt 0.476412 0.413044
vt 0.483588 0.408740
vt 0.454470 0.268773
vt 0.463259 0.286241
vt 0.453927 0.267693
vt 0.453927 0.267693
vt 0.480361 0.257192
vt 0.475078 0.309729
vt 0.451311 0.314300
vt 0.451311 0.314300
vt 0.469794 0.362267
vt 0.465622 0.403755
vt 0.465622 0.403755
vt 0.474049 0.204072
vt 0.474049 0.204072
vt 0.465864 0.401350
vt 0.497814 0.271109
vt 0.497814 0.271109
vt 0.484292 0.218101
vn -0.5263 0.0000 -0.8503
vn 0.8503 0.0000 -0.5263
vn 0.5263 0.0000 0.8503
vn 0.0000 1.0000 -0.0000
vn 0.8503 0.0000 0.5263
vn -0.1749 0.0000 0.9846
vn -0.9846 0.0000 0.1749
vn 0.1749 0.0000 0.9846
vn -0.1749 0.0000 -0.9846
vn 0.1749 0.0000 -0.9846
vn 0.5263 0.0000 -0.8503
vn 0.9846 -0.0000 0.1749
vn -0.8503 0.0000 -0.5263
vn 0.9846 0.0000 -0.1749
vn -0.9846 0.0000 -0.1749
vn -0.5263 0.0000 0.8503
vn -0.7436 0.4850 -0.4603
vn 0.4596 0.4871 -0.7426
vn 0.7425 0.4872 0.4597
vn -0.4618 0.4799 0.7459
vn -0.4599 0.4858 -0.7433
vn -0.1449 0.5605 -0.8154
vn 0.1449 0.5609 -0.8151
vn 0.4609 0.4842 0.7437
vn 0.1461 0.5525 0.8206
vn -0.1461 0.5515 0.8213
vn -0.7451 0.4820 0.4610
vn -0.8174 0.5574 0.1452
vn -0.8169 0.5583 -0.1452
vn 0.7427 0.4867 -0.4598
vn 0.8159 0.5597 -0.1450
vn 0.8158 0.5599 0.1450
vn -0.8503 0.0000 0.5263
vn -0.8043 0.3245 -0.4978
vn 0.4975 0.3262 -0.8038
vn 0.8037 0.3262 0.4976
vn -0.4987 0.3205 0.8054
vn -0.4976 0.3251 -0.8042
vn -0.1613 0.3862 -0.9082
vn 0.1614 0.3865 -0.9081
vn 0.4984 0.3239 0.8042
vn 0.1621 0.3793 0.9109
vn -0.1621 0.3785 0.9113
vn -0.8051 0.3221 0.4981
vn -0.9093 0.3835 0.1615
vn -0.9090 0.3843 -0.1616
vn 0.8039 0.3258 -0.4976
vn 0.9085 0.3855 -0.1615
vn 0.9084 0.3856 0.1615
vn -0.9179 0.0000 -0.3968
vn 0.3968 0.0000 -0.9179
vn 0.9179 0.0000 0.3968
vn 0.9985 0.0000 -0.0544
vn 0.4194 0.0000 0.9078
vn -0.7078 0.0000 0.7064
vn 0.7064 0.0000 0.7078
vn -0.7064 0.0000 -0.7078
vn -0.4194 0.0000 -0.9078
vn -0.0544 0.0000 -0.9985
vn 0.9078 0.0000 -0.4194
vn -0.9985 0.0000 0.0544
vn 0.7078 0.0000 -0.7064
vn -0.9078 0.0000 0.4194
vn 0.0544 0.0000 0.9985
vn -0.9736 0.2220 0.0529
vn -0.0530 0.2232 -0.9733
vn 0.9733 0.2232 -0.0529
vn 0.0529 0.2191 0.9743
vn -0.8949 0.2224 -0.3869
vn -0.6806 0.2677 -0.6820
vn -0.4040 0.2679 -0.8746
vn 0.8953 0.2215 0.3864
vn 0.6819 0.2625 0.6828
vn 0.4046 0.2619 0.8762
vn -0.3872 0.2203 0.8953
vn -0.6824 0.2657 0.6810
vn -0.8751 0.2662 0.4042
vn 0.3867 0.2230 -0.8949
vn 0.6820 0.2672 -0.6808
vn 0.8748 0.2673 -0.4040
vn -0.3968 0.0000 0.9179
usemtl Palette
s off
f 2/1/1 29/2/1 35/3/1 7/4/1
f 4/5/2 33/6/2 53/7/2 16/8/2
f 3/9/3 31/10/3 41/11/3 10/12/3
f 25/13/4 46/14/4 26/15/4 45/16/4
f 34/17/4 28/18/4 51/19/4 23/20/4
f 14/21/5 56/22/5 31/10/5 3/9/5
f 9/23/6 43/24/6 44/25/6 8/26/6
f 13/27/7 47/28/7 49/29/7 12/30/7
f 32/31/4 39/32/4 17/33/4 52/34/4
f 19/35/4 22/36/4 42/37/4 40/38/4
f 22/36/4 25/13/4 45/16/4 42/37/4
f 57/39/4 19/35/4 40/38/4 30/40/4
f 39/32/4 36/41/4 20/42/4 17/33/4
f 10/12/8 41/11/8 43/24/8 9/23/8
f 7/4/9 35/3/9 37/43/9 6/44/9
f 20/42/4 23/20/4 24/45/4 21/46/4
f 21/46/4 24/45/4 25/13/4 22/36/4
f 6/44/10 37/43/10 38/47/10 5/48/10
f 17/33/4 20/42/4 21/46/4 18/49/4
f 18/49/4 21/46/4 22/36/4 19/35/4
f 5/48/11 38/47/11 33/6/11 4/5/11
f 15/50/12 55/51/12 56/22/12 14/21/12
f 11/52/13 50/53/13 29/2/13 2/1/13
f 16/8/14 53/7/14 55/51/14 15/50/14
f 12/30/15 49/29/15 50/53/15 11/52/15
f 36/41/4 34/17/4 23/20/4 20/42/4
f 52/34/4 17/33/4 18/49/4 54/54/4
f 54/54/4 18/49/4 19/35/4 57/39/4
f 8/26/16 44/25/16 27/55/16 1/56/16
f 24/45/4 48/57/4 46/14/4 25/13/4
f 23/20/4 51/19/4 48/57/4 24/45/4
f 51/19/17 28/18/17 29/2/17 50/53/17
f 39/32/18 32/31/18 33/6/18 38/47/18
f 57/39/19 30/40/19 31/10/19 56/22/19
f 45/16/20 26/15/20 27/55/20 44/25/20
f 28/18/21 34/17/21 35/3/21 29/2/21
f 34/17/22 36/41/22 37/43/22 35/3/22
f 36/41/23 39/32/23 38/47/23 37/43/23
f 30/40/24 40/38/24 41/11/24 31/10/24
f 40/38/25 42/37/25 43/24/25 41/11/25
f 42/37/26 45/16/26 44/25/26 43/24/26
f 26/15/27 46/14/27 47/28/27 27/55/27
f 46/14/28 48/57/28 49/29/28 47/28/28
f 48/57/29 51/19/29 50/53/29 49/29/29
f 32/31/30 52/34/30 53/7/30 33/6/30
f 52/34/31 54/54/31 55/51/31 53/7/31
f 54/54/32 57/39/32 56/22/32 55/51/32
f 1/56/33 27/55/33 47/28/33 13/27/33
f 59/58/1 86/59/1 92/60/1 64/61/1
f 61/62/2 90/63/2 110/64/2 73/65/2
f 60/66/3 88/67/3 98/68/3 67/69/3
f 82/70/4 103/71/4 83/72/4 102/73/4
f 91/74/4 85/75/4 108/76/4 80/77/4
f 71/78/5 113/79/5 88/67/5 60/66/5
f 66/80/6 100/81/6 101/82/6 65/83/6
f 70/84/7 104/85/7 106/86/7 69/87/7
f 89/88/4 96/89/4 74/90/4 109/91/4
f 76/92/4 79/93/4 99/94/4 97/95/4
f 79/93/4 82/70/4 102/73/4 99/94/4
f 114/96/4 76/92/4 97/95/4 87/97/4
f 96/89/4 93/98/4 77/99/4 74/90/4
f 67/69/8 98/68/8 100/81/8 66/80/8
f 64/61/9 92/60/9 94/100/9 63/101/9
f 77/99/4 80/77/4 81/102/4 78/103/4
f 78/103/4 81/102/4 82/70/4 79/93/4
f 63/101/10 94/100/10 95/104/10 62/105/10
f 74/90/4 77/99/4 78/103/4 75/106/4
f 75/106/4 78/103/4 79/93/4 76/92/4
f 62/105/11 95/104/11 90/63/11 61/62/11
f 72/107/12 112/108/12 113/79/12 71/78/12
f 68/109/13 107/110/13 86/59/13 59/58/13
f 73/65/14 110/64/14 112/108/14 72/107/14
f 69/87/15 106/86/15 107/110/15 68/109/15
f 93/98/4 91/74/4 80/77/4 77/99/4
f 109/91/4 74/90/4 75/106/4 111/111/4
f 111/111/4 75/106/4 76/92/4 114/96/4
f 65/83/16 101/82/16 84/112/16 58/113/16
f 81/102/4 105/114/4 103/71/4 82/70/4
f 80/77/4 108/76/4 105/114/4 81/102/4
f 108/76/34 85/75/34 86/59/34 107/110/34
f 96/89/35 89/88/35 90/63/35 95/104/35
f 114/96/36 87/97/36 88/67/36 113/79/36
f 102/73/37 83/72/37 84/112/37 101/82/37
f 85/75/38 91/74/38 92/60/38 86/59/38
f 91/74/39 93/98/39 94/100/39 92/60/39
f 93/98/40 96/89/40 95/104/40 94/100/40
f 87/97/41 97/95/41 98/68/41 88/67/41
f 97/95/42 99/94/42 100/81/42 98/68/42
f 99/94/43 102/73/43 101/82/43 100/81/43
f 83/72/44 103/71/44 104/85/44 84/112/44
f 103/71/45 105/114/45 106/86/45 104/85/45
f 105/114/46 108/76/46 107/110/46 106/86/46
f 89/88/47 109/91/47 110/64/47 90/63/47
f 109/91/48 111/111/48 112/108/48 110/64/48
f 111/111/49 114/96/49 113/79/49 112/108/49
f 58/113/33 84/112/33 104/85/33 70/84/33
f 116/115/50 143/116/50 149/117/50 121/118/50
f 118/119/51 147/120/51 167/121/51 130/122/51
f 117/123/52 145/124/52 155/125/52 124/126/52
f 139/127/4 160/128/4 140/129/4 159/130/4
f 148/131/4 142/132/4 165/133/4 137/134/4
f 128/135/53 170/136/53 145/124/53 117/123/53
f 123/137/54 157/138/54 158/139/54 122/140/54
f 127/141/55 161/142/55 163/143/55 126/144/55
f 146/145/4 153/146/4 131/147/4 166/148/4
f 133/149/4 136/150/4 156/151/4 154/152/4
f 136/150/4 139/127/4 159/130/4 156/151/4
f 171/153/4 133/149/4 154/152/4 144/154/4
f 153/146/4 150/155/4 134/156/4 131/147/4
f 124/126/56 155/125/56 157/138/56 123/137/56
f 121/118/57 149/117/57 151/157/57 120/158/57
f 134/156/4 137/134/4 138/159/4 135/160/4
f 135/160/4 138/159/4 139/127/4 136/150/4
f 120/158/58 151/157/58 152/161/58 119/162/58
f 131/147/4 134/156/4 135/160/4 132/163/4
f 132/163/4 135/160/4 136/150/4 133/149/4
f 119/162/59 152/161/59 147/120/59 118/119/59
f 129/164/60 169/165/60 170/136/60 128/135/60
f 125/166/61 164/167/61 143/116/61 116/115/61
f 130/122/62 167/121/62 169/165/62 129/164/62
f 126/144/63 163/143/63 164/167/63 125/166/63
f 150/155/4 148/131/4 137/134/4 134/156/4
f 166/148/4 131/147/4 132/163/4 168/168/4
f 168/168/4 132/163/4 133/149/4 171/153/4
f 122/140/64 158/139/64 141/169/64 115/170/64
f 138/159/4 162/171/4 160/128/4 139/127/4
f 137/134/4 165/133/4 162/171/4 138/159/4
f 165/133/65 142/132/65 143/116/65 164/167/65
f 153/146/66 146/145/66 147/120/66 152/161/66
f 171/153/67 144/154/67 145/124/67 170/136/67
f 159/130/68 140/129/68 141/169/68 158/139/68
f 142/132/69 148/131/69 149/117/69 143/116/69
f 148/131/70 150/155/70 151/157/70 149/117/70
f 150/155/71 153/146/71 152/161/71 151/157/71
f 144/154/72 154/152/72 155/125/72 145/124/72
f 154/152/73 156/151/73 157/138/73 155/125/73
f 156/151/74 159/130/74 158/139/74 157/138/74
f 140/129/75 160/128/75 161/142/75 141/169/75
f 160/128/76 162/171/76 163/143/76 161/142/76
f 162/171/77 165/133/77 164/167/77 163/143/77
f 146/145/78 166/148/78 167/121/78 147/120/78
f 166/148/79 168/168/79 169/165/79 167/121/79
f 168/168/80 171/153/80 170/136/80 169/165/80
f 115/170/81 141/169/81 161/142/81 127/141/81
